<svg width="18" height="18" viewBox="0 0 18 18" fill="none" xmlns="http://www.w3.org/2000/svg">
<path fill-rule="evenodd" clip-rule="evenodd" d="M8.98532 1.20024C8.2813 1.19395 7.58173 1.31137 6.91878 1.54704L6.91566 1.54815C5.83169 1.92676 4.87256 2.59288 4.14167 3.47425C3.4108 4.3556 2.93587 5.41871 2.76787 6.54873C2.59988 7.67873 2.74514 8.83301 3.18809 9.88698C3.63105 10.941 4.35497 11.8548 5.28199 12.5296L5.28915 12.5348C5.89272 12.9879 6.45341 13.4951 6.96427 14.0499L6.97119 14.0574C7.68609 14.8609 8.31068 15.7398 8.83394 16.6784L8.84167 16.6923L8.84866 16.7065C8.86216 16.7341 8.88335 16.7577 8.91015 16.7743C8.93697 16.791 8.96821 16.8 9.00028 16.8C9.03234 16.8 9.06358 16.791 9.09041 16.7743C9.11721 16.7577 9.13839 16.7341 9.15189 16.7065L9.16385 16.6821L9.17796 16.6589C9.20648 16.612 9.23418 16.5668 9.26118 16.5227C9.34771 16.3815 9.42702 16.252 9.50269 16.1163L9.50442 16.1132C10.3002 14.7053 11.388 13.4827 12.6954 12.5266L12.7014 12.5221L12.7076 12.5178C13.6036 11.8964 14.3137 11.0454 14.7632 10.0554C15.2126 9.06541 15.3846 7.973 15.2612 6.89381L15.2603 6.88615L15.2596 6.87848C15.1221 5.32298 14.402 3.87531 13.2414 2.82316C12.0808 1.77095 10.556 1.19137 8.98532 1.20024ZM8.99165 0.000249653C8.14919 -0.00675991 7.31201 0.133888 6.5184 0.415806C5.22944 0.866337 4.08818 1.65888 3.21796 2.70825C2.34738 3.75806 1.78121 5.02499 1.58092 6.37227C1.38062 7.71955 1.55386 9.09567 2.08182 10.3519C2.60917 11.6067 3.47032 12.6941 4.57209 13.4971C5.11457 13.9046 5.61863 14.3605 6.07804 14.859C6.73042 15.5927 7.30083 16.3948 7.77927 17.251C7.8922 17.4738 8.06418 17.6613 8.27632 17.7933C8.49363 17.9285 8.74447 18 9.00028 18C9.25608 18 9.50692 17.9285 9.72423 17.7933C9.93271 17.6636 10.1024 17.4803 10.2154 17.2625C10.2351 17.2302 10.2554 17.197 10.2761 17.1632C10.3648 17.0185 10.4613 16.8611 10.55 16.7021C11.2604 15.4458 12.2311 14.354 13.3979 13.4994C14.4685 12.7552 15.3178 11.7368 15.8558 10.5514C16.3939 9.36603 16.6007 8.05789 16.4543 6.76511C16.2884 4.91094 15.4292 3.18684 14.0474 1.93414C12.665 0.680754 10.8604 -0.0092155 8.99165 0.000249653ZM6.41504 4.88873C7.10389 4.20593 8.03643 3.82399 9.00735 3.82611C9.97827 3.82824 10.9091 4.21424 11.595 4.90006C12.2809 5.58596 12.6655 6.51563 12.6634 7.48467C12.6595 8.44877 12.273 9.37178 11.5889 10.0527C10.9041 10.7342 9.97679 11.1178 9.00964 11.1205C8.52816 11.1214 8.05061 11.0278 7.60534 10.8451C7.16006 10.6623 6.75516 10.3939 6.41385 10.055C6.07253 9.71618 5.80149 9.31353 5.61636 8.87004C5.43123 8.42654 5.33567 7.95097 5.33522 7.47053L5.33522 7.46865C5.33736 6.4996 5.72609 5.57163 6.41504 4.88873ZM9.00473 5.02611C8.35035 5.02468 7.72274 5.28214 7.25981 5.741C6.79719 6.19956 6.53688 6.82166 6.53522 7.47041C6.53565 7.79208 6.59969 8.11058 6.72375 8.40777C6.84794 8.70528 7.02988 8.97568 7.25929 9.20343C7.48872 9.4312 7.76112 9.61186 8.06101 9.73495C8.36072 9.85797 8.68193 9.92105 9.00628 9.92052C9.65811 9.91869 10.2822 9.66012 10.7424 9.20211C11.2025 8.74419 11.4614 8.12418 11.4634 7.47764C11.4637 6.83015 11.2062 6.20834 10.7465 5.7486C10.2856 5.28773 9.6591 5.02754 9.00473 5.02611Z" fill="#00385D"/>
</svg>
