<svg width="16" height="18" viewBox="0 0 16 18" fill="none" xmlns="http://www.w3.org/2000/svg">
<path d="M13.427 5.32104H2.56956C1.78704 5.32104 1.15268 5.95322 1.15268 6.73304V16.035C1.15268 16.8149 1.78704 17.447 2.56956 17.447H13.427C14.2095 17.447 14.8439 16.8149 14.8439 16.035V6.73304C14.8439 5.95322 14.2095 5.32104 13.427 5.32104Z" fill="white"/>
<path d="M13.4272 5.87198C13.6564 5.87224 13.8762 5.96318 14.0382 6.1248C14.2002 6.28643 14.2912 6.50553 14.2912 6.73398V16.034C14.2913 16.1472 14.2691 16.2593 14.2257 16.3639C14.1824 16.4686 14.1188 16.5637 14.0385 16.6438C13.9583 16.7239 13.863 16.7875 13.7581 16.831C13.6532 16.8744 13.5408 16.8968 13.4272 16.897H2.56879C2.4552 16.8968 2.34275 16.8744 2.23786 16.831C2.13296 16.7875 2.03768 16.7239 1.95745 16.6438C1.87723 16.5637 1.81362 16.4686 1.77028 16.3639C1.72693 16.2593 1.70468 16.1472 1.70482 16.034V6.73398C1.70508 6.50571 1.79619 6.28686 1.95816 6.12545C2.12013 5.96404 2.33973 5.87324 2.56879 5.87298H13.4272V5.87198ZM13.4272 4.77298H2.56879C2.04681 4.77298 1.5462 4.97955 1.17701 5.34728C0.807818 5.71501 0.600276 6.2138 0.60001 6.73398V16.034C0.599482 16.292 0.650017 16.5475 0.748721 16.786C0.847426 17.0245 0.992361 17.2413 1.17523 17.4239C1.3581 17.6065 1.57532 17.7514 1.81444 17.8502C2.05357 17.9491 2.30991 18 2.56879 18H13.4272C13.6861 18.0005 13.9425 17.9501 14.1819 17.8518C14.4212 17.7534 14.6387 17.609 14.8219 17.4267C15.0052 17.2445 15.1506 17.028 15.2498 16.7897C15.3489 16.5514 15.4 16.296 15.4 16.038V6.73798C15.4005 6.47965 15.3499 6.22376 15.2509 5.985C15.152 5.74623 15.0067 5.52929 14.8234 5.34663C14.6401 5.16396 14.4224 5.01917 14.1828 4.92056C13.9432 4.82194 13.6864 4.77145 13.4272 4.77198V4.77298Z" fill="#00385D"/>
<path d="M13.4685 2.38501H2.58898C2.42225 2.39423 2.26539 2.46673 2.15063 2.58762C2.03587 2.7085 1.97192 2.8686 1.97192 3.03501C1.97192 3.20142 2.03587 3.36152 2.15063 3.4824C2.26539 3.60329 2.42225 3.67579 2.58898 3.68501H13.4685C13.6352 3.67579 13.7921 3.60329 13.9068 3.4824C14.0216 3.36152 14.0855 3.20142 14.0855 3.03501C14.0855 2.8686 14.0216 2.7085 13.9068 2.58762C13.7921 2.46673 13.6352 2.39423 13.4685 2.38501Z" fill="#00385D"/>
<path d="M12.3817 -7.20806e-06H3.67775C3.59151 -0.00163682 3.50583 0.0140884 3.42584 0.0462273C3.34584 0.0783661 3.27318 0.126258 3.21219 0.187037C3.1512 0.247815 3.10314 0.320231 3.07089 0.399951C3.03864 0.47967 3.02286 0.565054 3.0245 0.650993C3.02286 0.736931 3.03864 0.822315 3.07089 0.902035C3.10314 0.981754 3.1512 1.05417 3.21219 1.11495C3.27318 1.17573 3.34584 1.22362 3.42584 1.25576C3.50583 1.2879 3.59151 1.30362 3.67775 1.30199H12.3817C12.468 1.30362 12.5537 1.2879 12.6336 1.25576C12.7136 1.22362 12.7863 1.17573 12.8473 1.11495C12.9083 1.05417 12.9563 0.981754 12.9886 0.902035C13.0208 0.822315 13.0366 0.736931 13.035 0.650993C13.0366 0.565054 13.0208 0.47967 12.9886 0.399951C12.9563 0.320231 12.9083 0.247815 12.8473 0.187037C12.7863 0.126258 12.7136 0.0783661 12.6336 0.0462273C12.5537 0.0140884 12.468 -0.00163682 12.3817 -7.20806e-06Z" fill="#00385D"/>
<path d="M10.9977 7.15405C10.8931 7.15392 10.7896 7.17434 10.6929 7.21413C10.5962 7.25392 10.5084 7.31231 10.4344 7.38596C10.3604 7.45961 10.3017 7.54708 10.2616 7.64335C10.2216 7.73963 10.201 7.84283 10.201 7.94705V9.16305H5.7968V7.94705C5.78948 7.74148 5.70238 7.54676 5.55386 7.40391C5.40533 7.26106 5.20698 7.18123 5.00056 7.18123C4.79415 7.18123 4.59579 7.26106 4.44726 7.40391C4.29874 7.54676 4.21164 7.74148 4.20432 7.94705V9.16305C4.20203 9.37209 4.24166 9.57948 4.32089 9.77305C4.40011 9.96663 4.51732 10.1425 4.66566 10.2903C4.81399 10.4381 4.99045 10.5549 5.18469 10.6339C5.37893 10.7128 5.58704 10.7523 5.7968 10.7501H10.201C10.4107 10.7523 10.6188 10.7128 10.8131 10.6339C11.0073 10.5549 11.1838 10.4381 11.3321 10.2903C11.4805 10.1425 11.5977 9.96663 11.6769 9.77305C11.7561 9.57948 11.7957 9.37209 11.7935 9.16305V7.94705C11.7935 7.73674 11.7096 7.53503 11.5604 7.38632C11.4112 7.2376 11.2088 7.15405 10.9977 7.15405Z" fill="#00385D" stroke="white" stroke-width="0.5" stroke-miterlimit="10"/>
</svg>
