<svg width="24" height="18" viewBox="0 0 24 18" fill="none" xmlns="http://www.w3.org/2000/svg">
<path d="M18 0H6C2.68629 0 0 2.68629 0 6V12C0 15.3137 2.68629 18 6 18H18C21.3137 18 24 15.3137 24 12V6C24 2.68629 21.3137 0 18 0Z" fill="white"/>
<path d="M6 0.5H18C21.0376 0.5 23.5 2.96243 23.5 6V12C23.5 15.0376 21.0376 17.5 18 17.5H6C2.96243 17.5 0.5 15.0376 0.5 12V6C0.5 2.96243 2.96243 0.5 6 0.5Z" stroke="#00385D" stroke-opacity="0.1"/>
<path d="M11.4602 13.26V6.73199L8.30078 9.88799V8.43599L12.0008 4.73999L15.7008 8.43599V9.88799L12.5414 6.73199V13.26H11.4602Z" fill="#00385D" fill-opacity="0.3"/>
<path d="M11.3602 13.26V13.36H11.4602H12.5414H12.6414V13.26V6.97323L15.6301 9.95874L15.8008 10.1292V9.88799V8.43599V8.39454L15.7715 8.36524L12.0715 4.66924L12.0008 4.59865L11.9301 4.66924L8.23011 8.36524L8.20078 8.39454V8.43599V9.88799V10.1292L8.37145 9.95874L11.3602 6.97323V13.26Z" stroke="#00385D" stroke-opacity="0.3" stroke-width="0.2"/>
</svg>
