<svg width="24" height="18" viewBox="0 0 24 18" fill="none" xmlns="http://www.w3.org/2000/svg">
<path d="M18 0H6C2.68629 0 0 2.68629 0 6V12C0 15.3137 2.68629 18 6 18H18C21.3137 18 24 15.3137 24 12V6C24 2.68629 21.3137 0 18 0Z" fill="white"/>
<path d="M6 0.5H18C21.0376 0.5 23.5 2.96243 23.5 6V12C23.5 15.0376 21.0376 17.5 18 17.5H6C2.96243 17.5 0.5 15.0376 0.5 12V6C0.5 2.96243 2.96243 0.5 6 0.5Z" stroke="#00385D" stroke-opacity="0.1"/>
<path d="M12.0008 13.26L8.30078 9.56399V8.11199L11.4602 11.268V4.73999H12.5414V11.268L15.7008 8.11199V9.56399L12.0008 13.26Z" fill="#00385D" fill-opacity="0.3"/>
<path d="M11.9301 13.3307L12.0008 13.4013L12.0715 13.3307L15.7715 9.63474L15.8008 9.60544V9.56399V8.11199V7.87075L15.6301 8.04124L12.6414 11.0268V4.73999V4.63999H12.5414H11.4602H11.3602V4.73999V11.0268L8.37145 8.04124L8.20078 7.87075V8.11199V9.56399V9.60544L8.23011 9.63474L11.9301 13.3307Z" stroke="#00385D" stroke-opacity="0.3" stroke-width="0.2"/>
</svg>
