<svg width="18" height="18" viewBox="0 0 18 18" fill="none" xmlns="http://www.w3.org/2000/svg">
<path d="M18 9C18 4.02944 13.9706 0 9 0C4.02944 0 0 4.02944 0 9C0 13.9706 4.02944 18 9 18C13.9706 18 18 13.9706 18 9Z" fill="#00385D" fill-opacity="0.05"/>
<path d="M5.20851 8.10332C5.10945 8.00528 5.04176 7.87998 5.01404 7.74335C4.98632 7.60672 4.99984 7.46493 5.05286 7.336C5.10922 7.2068 5.2019 7.09678 5.31963 7.01935C5.43736 6.94192 5.57505 6.90042 5.71594 6.8999L12.3031 6.8999C12.442 6.90101 12.5774 6.94328 12.6923 7.02137C12.8071 7.09946 12.8963 7.20988 12.9485 7.33866C13.0007 7.46744 13.0136 7.60882 12.9855 7.74492C12.9574 7.88102 12.8897 8.00574 12.7908 8.10332L9.6539 11.2245C9.56712 11.3118 9.46396 11.3811 9.35034 11.4283C9.23673 11.4756 9.1149 11.4999 8.99187 11.4999C8.86883 11.4999 8.747 11.4756 8.63339 11.4283C8.51977 11.3811 8.41661 11.3118 8.32983 11.2245L5.20851 8.10332Z" fill="#00385D"/>
</svg>
