<svg width="18" height="18" viewBox="0 0 18 18" fill="none" xmlns="http://www.w3.org/2000/svg">
<mask id="path-1-outside-1_77_5184" x="-0.800781" y="0.700195" width="19" height="16" fill="black">
<rect fill="white" x="-0.800781" y="0.700195" width="19" height="16"/>
<path fill-rule="evenodd" clip-rule="evenodd" d="M7.16543 5.3502H10.8321C11.1238 5.34994 11.4034 5.23449 11.6096 5.02919C11.8159 4.8239 11.9318 4.54553 11.9321 4.2552V3.89016H15.9659C16.2575 3.89041 16.5372 4.00586 16.7434 4.21116C16.9496 4.41646 17.0656 4.69482 17.0659 4.98516V14.4752C17.0656 14.7655 16.9496 15.0439 16.7434 15.2492C16.5372 15.4544 16.2575 15.5699 15.9659 15.5702H2.03255C1.74089 15.5699 1.46125 15.4544 1.25502 15.2492C1.04879 15.0439 0.932811 14.7655 0.932552 14.4752V4.98516C0.932811 4.69482 1.04879 4.41646 1.25502 4.21116C1.46125 4.00586 1.74089 3.89041 2.03255 3.89016H6.06543V4.2552C6.06569 4.54553 6.18166 4.8239 6.3879 5.02919C6.59413 5.23449 6.87377 5.34994 7.16543 5.3502ZM6.06543 3.16016V2.7952C6.06569 2.50486 6.18166 2.22649 6.3879 2.0212C6.59413 1.8159 6.87377 1.70045 7.16543 1.7002H10.8321C11.1238 1.70045 11.4034 1.8159 11.6096 2.0212C11.8159 2.22649 11.9318 2.50486 11.9321 2.7952V3.16016H15.9659C16.4519 3.16093 16.9177 3.35345 17.2614 3.69554C17.605 4.03763 17.7984 4.50137 17.7992 4.98516V14.4752C17.7984 14.9589 17.605 15.4227 17.2614 15.7648C16.9177 16.1069 16.4519 16.2994 15.9659 16.3002H2.03255C1.54656 16.2994 1.0807 16.1069 0.737046 15.7648C0.393398 15.4227 0.199994 14.9589 0.199219 14.4752V4.98516C0.199994 4.50137 0.393398 4.03763 0.737046 3.69554C1.0807 3.35345 1.54656 3.16093 2.03255 3.16016H6.06543ZM6.79876 3.50695V2.7952C6.79876 2.69839 6.83739 2.60555 6.90616 2.5371C6.97492 2.46865 7.06818 2.4302 7.16543 2.4302H10.8321C10.9293 2.4302 11.0226 2.46865 11.0914 2.5371C11.1601 2.60555 11.1988 2.69839 11.1988 2.7952V4.2552C11.1988 4.352 11.1601 4.44484 11.0914 4.51329C11.0226 4.58174 10.9293 4.6202 10.8321 4.6202H7.16543C7.06818 4.6202 6.97492 4.58174 6.90616 4.51329C6.83739 4.44484 6.79876 4.352 6.79876 4.2552V3.54336C6.79907 3.53731 6.79922 3.53124 6.79922 3.52516C6.79922 3.51907 6.79907 3.513 6.79876 3.50695ZM5.69857 10.4603C5.33597 10.4603 4.98151 10.3533 4.68002 10.1527C4.37853 9.9522 4.14355 9.66718 4.00479 9.3337C3.86603 9.00023 3.82972 8.63328 3.90046 8.27926C3.9712 7.92525 4.14581 7.60006 4.40221 7.34483C4.6586 7.0896 4.98527 6.91579 5.3409 6.84537C5.69653 6.77495 6.06516 6.81109 6.40015 6.94922C6.73515 7.08735 7.02148 7.32127 7.22293 7.62139C7.42438 7.92151 7.5319 8.27435 7.5319 8.6353C7.53113 9.11909 7.33772 9.58283 6.99407 9.92492C6.65043 10.267 6.18456 10.4595 5.69857 10.4603ZM5.69857 7.5403C5.48101 7.5403 5.26833 7.60452 5.08744 7.72484C4.90655 7.84516 4.76556 8.01618 4.6823 8.21627C4.59904 8.41635 4.57726 8.63652 4.6197 8.84893C4.66215 9.06134 4.76691 9.25645 4.92075 9.40959C5.07459 9.56272 5.27059 9.66701 5.48397 9.70926C5.69735 9.75151 5.91852 9.72983 6.11952 9.64695C6.32052 9.56407 6.49232 9.42372 6.61318 9.24365C6.73405 9.06358 6.79857 8.85187 6.79857 8.6353C6.79831 8.34497 6.68233 8.0666 6.4761 7.86131C6.26987 7.65601 5.99023 7.54056 5.69857 7.5403ZM8.3725 14.0033C8.44126 14.0717 8.53452 14.1102 8.63177 14.1102C8.72902 14.1102 8.82228 14.0717 8.89104 14.0033C8.95981 13.9348 8.99844 13.842 8.99844 13.7452V13.0152C8.99766 12.5314 8.80426 12.0677 8.46061 11.7256C8.11696 11.3835 7.6511 11.191 7.1651 11.1902H4.23177C3.74578 11.191 3.27991 11.3835 2.93627 11.7256C2.59262 12.0677 2.39921 12.5314 2.39844 13.0152V13.7452C2.39844 13.842 2.43707 13.9348 2.50583 14.0033C2.57459 14.0717 2.66786 14.1102 2.7651 14.1102C2.86235 14.1102 2.95561 14.0717 3.02438 14.0033C3.09314 13.9348 3.13177 13.842 3.13177 13.7452V13.0152C3.13203 12.7249 3.24801 12.4465 3.45424 12.2412C3.66047 12.0359 3.94011 11.9204 4.23177 11.9202H7.1651C7.45676 11.9204 7.7364 12.0359 7.94264 12.2412C8.14887 12.4465 8.26484 12.7249 8.2651 13.0152V13.7452C8.2651 13.842 8.30373 13.9348 8.3725 14.0033ZM15.2335 8.27028H10.8335C10.7362 8.27028 10.643 8.23183 10.5742 8.16338C10.5054 8.09493 10.4668 8.00209 10.4668 7.90528C10.4668 7.80848 10.5054 7.71564 10.5742 7.64719C10.643 7.57874 10.7362 7.54028 10.8335 7.54028H15.2335C15.3307 7.54028 15.424 7.57874 15.4927 7.64719C15.5615 7.71564 15.6001 7.80848 15.6001 7.90528C15.6001 8.00209 15.5615 8.09493 15.4927 8.16338C15.424 8.23183 15.3307 8.27028 15.2335 8.27028ZM10.8335 11.1902H15.2335C15.3307 11.1902 15.424 11.1518 15.4927 11.0833C15.5615 11.0148 15.6001 10.922 15.6001 10.8252C15.6001 10.7284 15.5615 10.6356 15.4927 10.5671C15.424 10.4987 15.3307 10.4602 15.2335 10.4602H10.8335C10.7362 10.4602 10.643 10.4987 10.5742 10.5671C10.5054 10.6356 10.4668 10.7284 10.4668 10.8252C10.4668 10.922 10.5054 11.0148 10.5742 11.0833C10.643 11.1518 10.7362 11.1902 10.8335 11.1902ZM15.2335 14.1101H10.8335C10.7362 14.1101 10.643 14.0717 10.5742 14.0032C10.5054 13.9348 10.4668 13.8419 10.4668 13.7451C10.4668 13.6483 10.5054 13.5555 10.5742 13.487C10.643 13.4186 10.7362 13.3801 10.8335 13.3801H15.2335C15.3307 13.3801 15.424 13.4186 15.4927 13.487C15.5615 13.5555 15.6001 13.6483 15.6001 13.7451C15.6001 13.8419 15.5615 13.9348 15.4927 14.0032C15.424 14.0717 15.3307 14.1101 15.2335 14.1101Z"/>
</mask>
<path fill-rule="evenodd" clip-rule="evenodd" d="M7.16543 5.3502H10.8321C11.1238 5.34994 11.4034 5.23449 11.6096 5.02919C11.8159 4.8239 11.9318 4.54553 11.9321 4.2552V3.89016H15.9659C16.2575 3.89041 16.5372 4.00586 16.7434 4.21116C16.9496 4.41646 17.0656 4.69482 17.0659 4.98516V14.4752C17.0656 14.7655 16.9496 15.0439 16.7434 15.2492C16.5372 15.4544 16.2575 15.5699 15.9659 15.5702H2.03255C1.74089 15.5699 1.46125 15.4544 1.25502 15.2492C1.04879 15.0439 0.932811 14.7655 0.932552 14.4752V4.98516C0.932811 4.69482 1.04879 4.41646 1.25502 4.21116C1.46125 4.00586 1.74089 3.89041 2.03255 3.89016H6.06543V4.2552C6.06569 4.54553 6.18166 4.8239 6.3879 5.02919C6.59413 5.23449 6.87377 5.34994 7.16543 5.3502ZM6.06543 3.16016V2.7952C6.06569 2.50486 6.18166 2.22649 6.3879 2.0212C6.59413 1.8159 6.87377 1.70045 7.16543 1.7002H10.8321C11.1238 1.70045 11.4034 1.8159 11.6096 2.0212C11.8159 2.22649 11.9318 2.50486 11.9321 2.7952V3.16016H15.9659C16.4519 3.16093 16.9177 3.35345 17.2614 3.69554C17.605 4.03763 17.7984 4.50137 17.7992 4.98516V14.4752C17.7984 14.9589 17.605 15.4227 17.2614 15.7648C16.9177 16.1069 16.4519 16.2994 15.9659 16.3002H2.03255C1.54656 16.2994 1.0807 16.1069 0.737046 15.7648C0.393398 15.4227 0.199994 14.9589 0.199219 14.4752V4.98516C0.199994 4.50137 0.393398 4.03763 0.737046 3.69554C1.0807 3.35345 1.54656 3.16093 2.03255 3.16016H6.06543ZM6.79876 3.50695V2.7952C6.79876 2.69839 6.83739 2.60555 6.90616 2.5371C6.97492 2.46865 7.06818 2.4302 7.16543 2.4302H10.8321C10.9293 2.4302 11.0226 2.46865 11.0914 2.5371C11.1601 2.60555 11.1988 2.69839 11.1988 2.7952V4.2552C11.1988 4.352 11.1601 4.44484 11.0914 4.51329C11.0226 4.58174 10.9293 4.6202 10.8321 4.6202H7.16543C7.06818 4.6202 6.97492 4.58174 6.90616 4.51329C6.83739 4.44484 6.79876 4.352 6.79876 4.2552V3.54336C6.79907 3.53731 6.79922 3.53124 6.79922 3.52516C6.79922 3.51907 6.79907 3.513 6.79876 3.50695ZM5.69857 10.4603C5.33597 10.4603 4.98151 10.3533 4.68002 10.1527C4.37853 9.9522 4.14355 9.66718 4.00479 9.3337C3.86603 9.00023 3.82972 8.63328 3.90046 8.27926C3.9712 7.92525 4.14581 7.60006 4.40221 7.34483C4.6586 7.0896 4.98527 6.91579 5.3409 6.84537C5.69653 6.77495 6.06516 6.81109 6.40015 6.94922C6.73515 7.08735 7.02148 7.32127 7.22293 7.62139C7.42438 7.92151 7.5319 8.27435 7.5319 8.6353C7.53113 9.11909 7.33772 9.58283 6.99407 9.92492C6.65043 10.267 6.18456 10.4595 5.69857 10.4603ZM5.69857 7.5403C5.48101 7.5403 5.26833 7.60452 5.08744 7.72484C4.90655 7.84516 4.76556 8.01618 4.6823 8.21627C4.59904 8.41635 4.57726 8.63652 4.6197 8.84893C4.66215 9.06134 4.76691 9.25645 4.92075 9.40959C5.07459 9.56272 5.27059 9.66701 5.48397 9.70926C5.69735 9.75151 5.91852 9.72983 6.11952 9.64695C6.32052 9.56407 6.49232 9.42372 6.61318 9.24365C6.73405 9.06358 6.79857 8.85187 6.79857 8.6353C6.79831 8.34497 6.68233 8.0666 6.4761 7.86131C6.26987 7.65601 5.99023 7.54056 5.69857 7.5403ZM8.3725 14.0033C8.44126 14.0717 8.53452 14.1102 8.63177 14.1102C8.72902 14.1102 8.82228 14.0717 8.89104 14.0033C8.95981 13.9348 8.99844 13.842 8.99844 13.7452V13.0152C8.99766 12.5314 8.80426 12.0677 8.46061 11.7256C8.11696 11.3835 7.6511 11.191 7.1651 11.1902H4.23177C3.74578 11.191 3.27991 11.3835 2.93627 11.7256C2.59262 12.0677 2.39921 12.5314 2.39844 13.0152V13.7452C2.39844 13.842 2.43707 13.9348 2.50583 14.0033C2.57459 14.0717 2.66786 14.1102 2.7651 14.1102C2.86235 14.1102 2.95561 14.0717 3.02438 14.0033C3.09314 13.9348 3.13177 13.842 3.13177 13.7452V13.0152C3.13203 12.7249 3.24801 12.4465 3.45424 12.2412C3.66047 12.0359 3.94011 11.9204 4.23177 11.9202H7.1651C7.45676 11.9204 7.7364 12.0359 7.94264 12.2412C8.14887 12.4465 8.26484 12.7249 8.2651 13.0152V13.7452C8.2651 13.842 8.30373 13.9348 8.3725 14.0033ZM15.2335 8.27028H10.8335C10.7362 8.27028 10.643 8.23183 10.5742 8.16338C10.5054 8.09493 10.4668 8.00209 10.4668 7.90528C10.4668 7.80848 10.5054 7.71564 10.5742 7.64719C10.643 7.57874 10.7362 7.54028 10.8335 7.54028H15.2335C15.3307 7.54028 15.424 7.57874 15.4927 7.64719C15.5615 7.71564 15.6001 7.80848 15.6001 7.90528C15.6001 8.00209 15.5615 8.09493 15.4927 8.16338C15.424 8.23183 15.3307 8.27028 15.2335 8.27028ZM10.8335 11.1902H15.2335C15.3307 11.1902 15.424 11.1518 15.4927 11.0833C15.5615 11.0148 15.6001 10.922 15.6001 10.8252C15.6001 10.7284 15.5615 10.6356 15.4927 10.5671C15.424 10.4987 15.3307 10.4602 15.2335 10.4602H10.8335C10.7362 10.4602 10.643 10.4987 10.5742 10.5671C10.5054 10.6356 10.4668 10.7284 10.4668 10.8252C10.4668 10.922 10.5054 11.0148 10.5742 11.0833C10.643 11.1518 10.7362 11.1902 10.8335 11.1902ZM15.2335 14.1101H10.8335C10.7362 14.1101 10.643 14.0717 10.5742 14.0032C10.5054 13.9348 10.4668 13.8419 10.4668 13.7451C10.4668 13.6483 10.5054 13.5555 10.5742 13.487C10.643 13.4186 10.7362 13.3801 10.8335 13.3801H15.2335C15.3307 13.3801 15.424 13.4186 15.4927 13.487C15.5615 13.5555 15.6001 13.6483 15.6001 13.7451C15.6001 13.8419 15.5615 13.9348 15.4927 14.0032C15.424 14.0717 15.3307 14.1101 15.2335 14.1101Z" fill="#00385D"/>
<path d="M10.8321 5.3502V5.5502L10.8323 5.5502L10.8321 5.3502ZM7.16543 5.3502L7.16525 5.5502H7.16543V5.3502ZM11.9321 4.2552L12.1321 4.25537V4.2552H11.9321ZM11.9321 3.89016V3.69016H11.7321V3.89016H11.9321ZM15.9659 3.89016L15.9661 3.69016H15.9659V3.89016ZM16.7434 4.21116L16.6023 4.3529L16.7434 4.21116ZM17.0659 4.98516H17.2659V4.98498L17.0659 4.98516ZM17.0659 14.4752L17.2659 14.4753V14.4752H17.0659ZM16.7434 15.2492L16.8845 15.3909V15.3909L16.7434 15.2492ZM15.9659 15.5702V15.7702H15.9661L15.9659 15.5702ZM2.03255 15.5702L2.03237 15.7702H2.03255V15.5702ZM1.25502 15.2492L1.11392 15.3909L1.11392 15.3909L1.25502 15.2492ZM0.932552 14.4752H0.732552L0.732552 14.4753L0.932552 14.4752ZM0.932552 4.98516L0.732552 4.98498V4.98516H0.932552ZM1.25502 4.21116L1.39612 4.3529H1.39612L1.25502 4.21116ZM2.03255 3.89016V3.69016L2.03238 3.69016L2.03255 3.89016ZM6.06543 3.89016H6.26543V3.69016H6.06543V3.89016ZM6.06543 4.2552H5.86543L5.86543 4.25537L6.06543 4.2552ZM6.06543 3.16016V3.36016H6.26543V3.16016H6.06543ZM6.06543 2.7952L5.86543 2.79502V2.7952H6.06543ZM6.3879 2.0212L6.529 2.16294L6.3879 2.0212ZM7.16543 1.7002V1.5002L7.16525 1.5002L7.16543 1.7002ZM10.8321 1.7002L10.8323 1.5002H10.8321V1.7002ZM11.6096 2.0212L11.4685 2.16294L11.6096 2.0212ZM11.9321 2.7952H12.1321V2.79502L11.9321 2.7952ZM11.9321 3.16016H11.7321V3.36016H11.9321V3.16016ZM15.9659 3.16016L15.9662 2.96016H15.9659V3.16016ZM17.2614 3.69554L17.1203 3.83728L17.2614 3.69554ZM17.7992 4.98516H17.9992L17.9992 4.98484L17.7992 4.98516ZM17.7992 14.4752L17.9992 14.4755V14.4752H17.7992ZM15.9659 16.3002V16.5002H15.9662L15.9659 16.3002ZM2.03255 16.3002L2.03223 16.5002H2.03255V16.3002ZM0.199219 14.4752H-0.000781506L-0.000781 14.4755L0.199219 14.4752ZM0.199219 4.98516L-0.000781253 4.98484V4.98516H0.199219ZM0.737046 3.69554L0.878145 3.83728L0.737046 3.69554ZM2.03255 3.16016V2.96016L2.03223 2.96016L2.03255 3.16016ZM6.79876 3.50695H6.59851L6.59901 3.51697L6.79876 3.50695ZM6.90616 2.5371L7.04726 2.67884V2.67884L6.90616 2.5371ZM11.0914 2.5371L10.9503 2.67884L10.9503 2.67884L11.0914 2.5371ZM11.0914 4.51329L10.9503 4.37155V4.37155L11.0914 4.51329ZM6.90616 4.51329L6.76506 4.65503V4.65503L6.90616 4.51329ZM6.79876 3.54336L6.59876 3.53333V3.54336H6.79876ZM4.68002 10.1527L4.79079 9.98621L4.79079 9.98621L4.68002 10.1527ZM5.69857 10.4603V10.6603H5.69889L5.69857 10.4603ZM4.00479 9.3337L3.82014 9.41054L4.00479 9.3337ZM4.40221 7.34483L4.26111 7.20309L4.40221 7.34483ZM6.40015 6.94922L6.47639 6.76432H6.47639L6.40015 6.94922ZM7.22293 7.62139L7.05687 7.73285L7.22293 7.62139ZM7.5319 8.6353L7.7319 8.63562V8.6353H7.5319ZM6.99407 9.92492L6.85297 9.78318L6.99407 9.92492ZM5.69857 7.5403L5.69874 7.3403H5.69857V7.5403ZM4.6197 8.84893L4.81583 8.80974L4.6197 8.84893ZM5.48397 9.70926L5.52282 9.51307H5.52282L5.48397 9.70926ZM6.11952 9.64695L6.19576 9.83185H6.19576L6.11952 9.64695ZM6.79857 8.6353H6.99857L6.99857 8.63513L6.79857 8.6353ZM8.3725 14.0033L8.5136 13.8615L8.5136 13.8615L8.3725 14.0033ZM8.99844 13.0152H9.19844V13.0149L8.99844 13.0152ZM8.46061 11.7256L8.60171 11.5838V11.5838L8.46061 11.7256ZM7.1651 11.1902L7.16542 10.9902H7.1651V11.1902ZM4.23177 11.1902V10.9902H4.23145L4.23177 11.1902ZM2.93627 11.7256L2.79517 11.5838L2.79517 11.5838L2.93627 11.7256ZM2.39844 13.0152L2.19844 13.0149V13.0152H2.39844ZM2.50583 14.0033L2.64693 13.8615H2.64693L2.50583 14.0033ZM3.02438 14.0033L2.88328 13.8615H2.88328L3.02438 14.0033ZM3.13177 13.0152L2.93177 13.015V13.0152H3.13177ZM3.45424 12.2412L3.59534 12.3829H3.59534L3.45424 12.2412ZM4.23177 11.9202V11.7202H4.23159L4.23177 11.9202ZM7.1651 11.9202L7.16528 11.7202H7.1651V11.9202ZM7.94264 12.2412L7.80154 12.3829L7.94264 12.2412ZM8.2651 13.0152H8.4651V13.015L8.2651 13.0152ZM10.5742 8.16338L10.7153 8.02164L10.7153 8.02163L10.5742 8.16338ZM10.5742 7.64719L10.7153 7.78893L10.7153 7.78893L10.5742 7.64719ZM15.4927 7.64719L15.3516 7.78893L15.3516 7.78893L15.4927 7.64719ZM15.4927 8.16338L15.3516 8.02163L15.3516 8.02164L15.4927 8.16338ZM15.4927 11.0833L15.3516 10.9416L15.3516 10.9416L15.4927 11.0833ZM15.4927 10.5671L15.3516 10.7089L15.3516 10.7089L15.4927 10.5671ZM10.5742 10.5671L10.7153 10.7089L10.7153 10.7089L10.5742 10.5671ZM10.5742 11.0833L10.7153 10.9416L10.7153 10.9416L10.5742 11.0833ZM10.5742 14.0032L10.7153 13.8615L10.7153 13.8615L10.5742 14.0032ZM10.5742 13.487L10.7153 13.6288L10.7153 13.6288L10.5742 13.487ZM15.4927 13.487L15.3516 13.6288L15.3516 13.6288L15.4927 13.487ZM15.4927 14.0032L15.3516 13.8615L15.3516 13.8615L15.4927 14.0032ZM10.8321 5.1502H7.16543V5.5502H10.8321V5.1502ZM11.4685 4.88745C11.2998 5.05538 11.0709 5.14998 10.8319 5.1502L10.8323 5.5502C11.1766 5.54989 11.507 5.41359 11.7507 5.17094L11.4685 4.88745ZM11.7321 4.25502C11.7319 4.49207 11.6372 4.71955 11.4685 4.88745L11.7507 5.17094C11.9945 4.92825 12.1318 4.59898 12.1321 4.25537L11.7321 4.25502ZM11.7321 3.89016V4.2552H12.1321V3.89016H11.7321ZM11.9321 4.09016H15.9659V3.69016H11.9321V4.09016ZM15.9657 4.09016C16.2047 4.09037 16.4336 4.18497 16.6023 4.3529L16.8845 4.06942C16.6407 3.82676 16.3104 3.69046 15.9661 3.69016L15.9657 4.09016ZM16.6023 4.3529C16.771 4.52081 16.8657 4.74828 16.8659 4.98533L17.2659 4.98498C17.2656 4.64137 17.1283 4.3121 16.8845 4.06942L16.6023 4.3529ZM16.8659 4.98516V14.4752H17.2659V4.98516H16.8659ZM16.8659 14.475C16.8657 14.712 16.771 14.9395 16.6023 15.1074L16.8845 15.3909C17.1283 15.1482 17.2656 14.8189 17.2659 14.4753L16.8659 14.475ZM16.6023 15.1074C16.4336 15.2753 16.2047 15.3699 15.9657 15.3702L15.9661 15.7702C16.3104 15.7699 16.6407 15.6336 16.8845 15.3909L16.6023 15.1074ZM15.9659 15.3702H2.03255V15.7702H15.9659V15.3702ZM2.03273 15.3702C1.79376 15.3699 1.56482 15.2753 1.39612 15.1074L1.11392 15.3909C1.35769 15.6336 1.68803 15.7699 2.03237 15.7702L2.03273 15.3702ZM1.39612 15.1074C1.22745 14.9395 1.13276 14.712 1.13255 14.475L0.732552 14.4753C0.732859 14.8189 0.870124 15.1482 1.11392 15.3909L1.39612 15.1074ZM1.13255 14.4752V4.98516H0.732552V14.4752H1.13255ZM1.13255 4.98533C1.13276 4.74828 1.22745 4.52081 1.39612 4.3529L1.11392 4.06942C0.870124 4.31211 0.732859 4.64137 0.732552 4.98498L1.13255 4.98533ZM1.39612 4.3529C1.56482 4.18497 1.79376 4.09037 2.03273 4.09016L2.03238 3.69016C1.68803 3.69046 1.35769 3.82676 1.11392 4.06942L1.39612 4.3529ZM2.03255 4.09016H6.06543V3.69016H2.03255V4.09016ZM6.26543 4.2552V3.89016H5.86543V4.2552H6.26543ZM6.529 4.88745C6.36033 4.71955 6.26564 4.49207 6.26543 4.25502L5.86543 4.25537C5.86574 4.59898 6.003 4.92825 6.2468 5.17094L6.529 4.88745ZM7.16561 5.1502C6.92664 5.14998 6.6977 5.05538 6.529 4.88745L6.2468 5.17094C6.49057 5.41359 6.82091 5.54989 7.16525 5.5502L7.16561 5.1502ZM6.26543 3.16016V2.7952H5.86543V3.16016H6.26543ZM6.26543 2.79537C6.26564 2.55832 6.36033 2.33084 6.529 2.16294L6.2468 1.87945C6.003 2.12214 5.86574 2.45141 5.86543 2.79502L6.26543 2.79537ZM6.529 2.16294C6.6977 1.99501 6.92664 1.90041 7.16561 1.9002L7.16525 1.5002C6.82091 1.5005 6.49057 1.6368 6.2468 1.87945L6.529 2.16294ZM7.16543 1.9002H10.8321V1.5002H7.16543V1.9002ZM10.8319 1.9002C11.0709 1.90041 11.2998 1.99501 11.4685 2.16294L11.7507 1.87945C11.507 1.6368 11.1766 1.5005 10.8323 1.5002L10.8319 1.9002ZM11.4685 2.16294C11.6372 2.33084 11.7319 2.55832 11.7321 2.79537L12.1321 2.79502C12.1318 2.45141 11.9945 2.12214 11.7507 1.87945L11.4685 2.16294ZM11.7321 2.7952V3.16016H12.1321V2.7952H11.7321ZM15.9659 2.96016H11.9321V3.36016H15.9659V2.96016ZM17.4025 3.5538C17.0213 3.17438 16.5048 2.96101 15.9662 2.96016L15.9656 3.36016C16.3989 3.36084 16.8141 3.53252 17.1203 3.83728L17.4025 3.5538ZM17.9992 4.98484C17.9984 4.44783 17.7837 3.93324 17.4025 3.5538L17.1203 3.83728C17.4264 4.14201 17.5985 4.55492 17.5992 4.98548L17.9992 4.98484ZM17.9992 14.4752V4.98516H17.5992V14.4752H17.9992ZM17.4025 15.9065C17.7837 15.5271 17.9984 15.0125 17.9992 14.4755L17.5992 14.4748C17.5985 14.9054 17.4264 15.3183 17.1203 15.623L17.4025 15.9065ZM15.9662 16.5002C16.5048 16.4993 17.0213 16.2859 17.4025 15.9065L17.1203 15.623C16.8141 15.9278 16.3989 16.0995 15.9656 16.1002L15.9662 16.5002ZM2.03255 16.5002H15.9659V16.1002H2.03255V16.5002ZM0.595948 15.9065C0.977095 16.2859 1.4936 16.4993 2.03223 16.5002L2.03287 16.1002C1.59952 16.0995 1.1843 15.9278 0.878145 15.623L0.595948 15.9065ZM-0.000781 14.4755C8.00788e-05 15.0125 0.21477 15.5271 0.595948 15.9065L0.878145 15.623C0.572026 15.3183 0.399909 14.9054 0.399218 14.4748L-0.000781 14.4755ZM-0.000781253 4.98516V14.4752H0.399219V4.98516H-0.000781253ZM0.595948 3.5538C0.21477 3.93324 8.00788e-05 4.44783 -0.000781 4.98484L0.399218 4.98548C0.399909 4.55492 0.572026 4.14201 0.878145 3.83728L0.595948 3.5538ZM2.03223 2.96016C1.4936 2.96101 0.977095 3.17438 0.595948 3.5538L0.878145 3.83728C1.1843 3.53252 1.59952 3.36084 2.03287 3.36016L2.03223 2.96016ZM6.06543 2.96016H2.03255V3.36016H6.06543V2.96016ZM6.59876 2.7952V3.50695H6.99876V2.7952H6.59876ZM6.76506 2.39536C6.65869 2.50124 6.59876 2.64505 6.59876 2.7952H6.99876C6.99876 2.75173 7.0161 2.70986 7.04726 2.67884L6.76506 2.39536ZM7.16543 2.2302C7.01543 2.2302 6.8714 2.2895 6.76506 2.39536L7.04726 2.67884C7.07844 2.6478 7.12093 2.6302 7.16543 2.6302V2.2302ZM10.8321 2.2302H7.16543V2.6302H10.8321V2.2302ZM11.2325 2.39536C11.1261 2.2895 10.9821 2.2302 10.8321 2.2302V2.6302C10.8766 2.6302 10.9191 2.6478 10.9503 2.67884L11.2325 2.39536ZM11.3988 2.7952C11.3988 2.64505 11.3388 2.50125 11.2325 2.39536L10.9503 2.67884C10.9814 2.70986 10.9988 2.75173 10.9988 2.7952H11.3988ZM11.3988 4.2552V2.7952H10.9988V4.2552H11.3988ZM11.2325 4.65503C11.3388 4.54914 11.3988 4.40534 11.3988 4.2552H10.9988C10.9988 4.29866 10.9814 4.34053 10.9503 4.37155L11.2325 4.65503ZM10.8321 4.8202C10.9821 4.8202 11.1261 4.76089 11.2325 4.65503L10.9503 4.37155C10.9191 4.40259 10.8766 4.4202 10.8321 4.4202V4.8202ZM7.16543 4.8202H10.8321V4.4202H7.16543V4.8202ZM6.76506 4.65503C6.8714 4.76089 7.01543 4.8202 7.16543 4.8202V4.4202C7.12093 4.4202 7.07844 4.40259 7.04726 4.37155L6.76506 4.65503ZM6.59876 4.2552C6.59876 4.40534 6.65869 4.54915 6.76506 4.65503L7.04726 4.37155C7.0161 4.34053 6.99876 4.29866 6.99876 4.2552H6.59876ZM6.59876 3.54336V4.2552H6.99876V3.54336H6.59876ZM6.99851 3.55337C6.99898 3.54399 6.99922 3.53458 6.99922 3.52516H6.59922C6.59922 3.5279 6.59915 3.53063 6.59901 3.53335L6.99851 3.55337ZM6.99922 3.52516C6.99922 3.51573 6.99898 3.50632 6.99851 3.49694L6.59901 3.51697C6.59915 3.51968 6.59922 3.52241 6.59922 3.52516H6.99922ZM4.56926 10.3193C4.90361 10.5417 5.29662 10.6603 5.69857 10.6603V10.2603C5.37532 10.2603 5.05941 10.1649 4.79079 9.98621L4.56926 10.3193ZM3.82014 9.41054C3.97415 9.78066 4.23489 10.0969 4.56926 10.3193L4.79079 9.98621C4.52217 9.80754 4.31295 9.55369 4.18944 9.25687L3.82014 9.41054ZM3.70434 8.24007C3.62581 8.63307 3.66612 9.0404 3.82014 9.41054L4.18944 9.25687C4.06593 8.96005 4.03363 8.63349 4.09659 8.31845L3.70434 8.24007ZM4.26111 7.20309C3.97667 7.48623 3.78287 7.84709 3.70434 8.24007L4.09659 8.31845C4.15954 8.00341 4.31495 7.7139 4.5433 7.48658L4.26111 7.20309ZM5.30206 6.64918C4.9078 6.72724 4.54553 6.91996 4.26111 7.20309L4.5433 7.48658C4.77167 7.25925 5.06274 7.10433 5.37975 7.04156L5.30206 6.64918ZM6.47639 6.76432C6.10496 6.61117 5.6963 6.57112 5.30206 6.64918L5.37975 7.04156C5.69676 6.97879 6.02535 7.01101 6.32392 7.13412L6.47639 6.76432ZM7.38899 7.50992C7.16545 7.1769 6.84783 6.91748 6.47639 6.76432L6.32392 7.13412C6.62247 7.25723 6.87751 7.46563 7.05687 7.73285L7.38899 7.50992ZM7.7319 8.6353C7.7319 8.23459 7.61253 7.84296 7.38899 7.50992L7.05687 7.73285C7.23623 8.00006 7.3319 8.31411 7.3319 8.6353H7.7319ZM7.13517 10.0667C7.51635 9.68722 7.73104 9.17263 7.7319 8.63562L7.3319 8.63498C7.33121 9.06554 7.15909 9.47845 6.85297 9.78318L7.13517 10.0667ZM5.69889 10.6603C6.23752 10.6594 6.75403 10.4461 7.13517 10.0667L6.85297 9.78318C6.54682 10.0879 6.1316 10.2596 5.69825 10.2603L5.69889 10.6603ZM5.19821 7.89137C5.34623 7.79291 5.52036 7.7403 5.69857 7.7403V7.3403C5.44166 7.3403 5.19044 7.41614 4.97668 7.55832L5.19821 7.89137ZM4.86695 8.2931C4.93496 8.12966 5.05019 7.98982 5.19821 7.89137L4.97668 7.55832C4.76291 7.7005 4.59615 7.9027 4.49765 8.13943L4.86695 8.2931ZM4.81583 8.80974C4.78117 8.63631 4.79895 8.45653 4.86695 8.2931L4.49765 8.13943C4.39914 8.37617 4.37335 8.63673 4.42358 8.88812L4.81583 8.80974ZM5.06185 9.26784C4.93605 9.14261 4.85048 8.98318 4.81583 8.80974L4.42358 8.88812C4.47381 9.1395 4.59778 9.37028 4.77965 9.55133L5.06185 9.26784ZM5.52282 9.51307C5.34806 9.47847 5.18766 9.39308 5.06185 9.26784L4.77965 9.55133C4.96152 9.73237 5.19312 9.85556 5.44512 9.90545L5.52282 9.51307ZM6.04328 9.46205C5.87871 9.52991 5.69758 9.54768 5.52282 9.51307L5.44512 9.90545C5.69712 9.95535 5.95833 9.92975 6.19576 9.83185L6.04328 9.46205ZM6.44713 9.13219C6.34834 9.27936 6.20784 9.3942 6.04328 9.46205L6.19576 9.83185C6.4332 9.73395 6.63629 9.56809 6.77924 9.35512L6.44713 9.13219ZM6.59857 8.6353C6.59857 8.81211 6.5459 8.98503 6.44713 9.13219L6.77924 9.35512C6.92221 9.14213 6.99857 8.89163 6.99857 8.6353H6.59857ZM6.335 8.00305C6.50367 8.17095 6.59836 8.39843 6.59857 8.63548L6.99857 8.63513C6.99826 8.29152 6.861 7.96225 6.6172 7.71956L6.335 8.00305ZM5.69839 7.7403C5.93736 7.74051 6.1663 7.83512 6.335 8.00305L6.6172 7.71956C6.37343 7.4769 6.04309 7.34061 5.69874 7.3403L5.69839 7.7403ZM8.63177 13.9102C8.58727 13.9102 8.54478 13.8926 8.5136 13.8615L8.2314 14.145C8.33774 14.2509 8.48178 14.3102 8.63177 14.3102V13.9102ZM8.74994 13.8615C8.71876 13.8926 8.67627 13.9102 8.63177 13.9102V14.3102C8.78177 14.3102 8.9258 14.2509 9.03214 14.145L8.74994 13.8615ZM8.79844 13.7452C8.79844 13.7887 8.7811 13.8305 8.74994 13.8615L9.03214 14.145C9.13851 14.0391 9.19844 13.8953 9.19844 13.7452H8.79844ZM8.79844 13.0152V13.7452H9.19844V13.0152H8.79844ZM8.31951 11.8673C8.62563 12.172 8.79775 12.5849 8.79844 13.0155L9.19844 13.0149C9.19758 12.4779 8.98289 11.9633 8.60171 11.5838L8.31951 11.8673ZM7.16479 11.3902C7.59814 11.3909 8.01336 11.5626 8.31951 11.8673L8.60171 11.5838C8.22056 11.2044 7.70405 10.991 7.16542 10.9902L7.16479 11.3902ZM4.23177 11.3902H7.1651V10.9902H4.23177V11.3902ZM3.07736 11.8673C3.38351 11.5626 3.79874 11.3909 4.23209 11.3902L4.23145 10.9902C3.69282 10.991 3.17631 11.2044 2.79517 11.5838L3.07736 11.8673ZM2.59844 13.0155C2.59913 12.5849 2.77124 12.172 3.07736 11.8673L2.79517 11.5838C2.41399 11.9633 2.1993 12.4779 2.19844 13.0149L2.59844 13.0155ZM2.59844 13.7452V13.0152H2.19844V13.7452H2.59844ZM2.64693 13.8615C2.61577 13.8305 2.59844 13.7887 2.59844 13.7452H2.19844C2.19844 13.8953 2.25836 14.0391 2.36473 14.145L2.64693 13.8615ZM2.7651 13.9102C2.72061 13.9102 2.67812 13.8926 2.64693 13.8615L2.36473 14.145C2.47107 14.2509 2.61511 14.3102 2.7651 14.3102V13.9102ZM2.88328 13.8615C2.85209 13.8926 2.8096 13.9102 2.7651 13.9102V14.3102C2.9151 14.3102 3.05914 14.2509 3.16548 14.145L2.88328 13.8615ZM2.93177 13.7452C2.93177 13.7887 2.91443 13.8305 2.88328 13.8615L3.16548 14.145C3.27185 14.0391 3.33177 13.8953 3.33177 13.7452H2.93177ZM2.93177 13.0152V13.7452H3.33177V13.0152H2.93177ZM3.31314 12.0994C3.06934 12.3421 2.93208 12.6714 2.93177 13.015L3.33177 13.0154C3.33198 12.7783 3.42667 12.5508 3.59534 12.3829L3.31314 12.0994ZM4.23159 11.7202C3.88725 11.7205 3.55691 11.8568 3.31314 12.0994L3.59534 12.3829C3.76404 12.215 3.99298 12.1204 4.23195 12.1202L4.23159 11.7202ZM7.1651 11.7202H4.23177V12.1202H7.1651V11.7202ZM8.08373 12.0994C7.83997 11.8568 7.50963 11.7205 7.16528 11.7202L7.16493 12.1202C7.4039 12.1204 7.63284 12.215 7.80154 12.3829L8.08373 12.0994ZM8.4651 13.015C8.4648 12.6714 8.32753 12.3421 8.08373 12.0994L7.80154 12.3829C7.97021 12.5508 8.06489 12.7783 8.0651 13.0154L8.4651 13.015ZM8.4651 13.7452V13.0152H8.0651V13.7452H8.4651ZM8.5136 13.8615C8.48244 13.8305 8.4651 13.7887 8.4651 13.7452H8.0651C8.0651 13.8953 8.12503 14.0391 8.2314 14.145L8.5136 13.8615ZM10.8335 8.47028H15.2335V8.07028H10.8335V8.47028ZM10.4331 8.30512C10.5394 8.41098 10.6835 8.47028 10.8335 8.47028V8.07028C10.789 8.07028 10.7465 8.05268 10.7153 8.02164L10.4331 8.30512ZM10.2668 7.90528C10.2668 8.05542 10.3267 8.19923 10.4331 8.30512L10.7153 8.02163C10.6841 7.99062 10.6668 7.94875 10.6668 7.90528H10.2668ZM10.4331 7.50545C10.3267 7.61133 10.2668 7.75514 10.2668 7.90528H10.6668C10.6668 7.86182 10.6841 7.81995 10.7153 7.78893L10.4331 7.50545ZM10.8335 7.34028C10.6835 7.34028 10.5394 7.39959 10.4331 7.50545L10.7153 7.78893C10.7465 7.75789 10.789 7.74028 10.8335 7.74028V7.34028ZM15.2335 7.34028H10.8335V7.74028H15.2335V7.34028ZM15.6338 7.50545C15.5275 7.39959 15.3835 7.34028 15.2335 7.34028V7.74028C15.278 7.74028 15.3205 7.75789 15.3516 7.78893L15.6338 7.50545ZM15.8001 7.90528C15.8001 7.75514 15.7402 7.61133 15.6338 7.50545L15.3516 7.78893C15.3828 7.81995 15.4001 7.86182 15.4001 7.90528H15.8001ZM15.6338 8.30512C15.7402 8.19923 15.8001 8.05542 15.8001 7.90528H15.4001C15.4001 7.94875 15.3828 7.99062 15.3516 8.02163L15.6338 8.30512ZM15.2335 8.47028C15.3835 8.47028 15.5275 8.41098 15.6338 8.30512L15.3516 8.02164C15.3205 8.05268 15.278 8.07028 15.2335 8.07028V8.47028ZM15.2335 10.9902H10.8335V11.3902H15.2335V10.9902ZM15.3516 10.9416C15.3205 10.9726 15.278 10.9902 15.2335 10.9902V11.3902C15.3835 11.3902 15.5275 11.3309 15.6338 11.225L15.3516 10.9416ZM15.4001 10.8252C15.4001 10.8687 15.3828 10.9105 15.3516 10.9416L15.6338 11.225C15.7402 11.1192 15.8001 10.9753 15.8001 10.8252H15.4001ZM15.3516 10.7089C15.3828 10.7399 15.4001 10.7817 15.4001 10.8252H15.8001C15.8001 10.6751 15.7402 10.5313 15.6338 10.4254L15.3516 10.7089ZM15.2335 10.6602C15.278 10.6602 15.3205 10.6778 15.3516 10.7089L15.6338 10.4254C15.5275 10.3195 15.3835 10.2602 15.2335 10.2602V10.6602ZM10.8335 10.6602H15.2335V10.2602H10.8335V10.6602ZM10.7153 10.7089C10.7465 10.6778 10.789 10.6602 10.8335 10.6602V10.2602C10.6835 10.2602 10.5394 10.3195 10.4331 10.4254L10.7153 10.7089ZM10.6668 10.8252C10.6668 10.7817 10.6841 10.7399 10.7153 10.7089L10.4331 10.4254C10.3267 10.5313 10.2668 10.6751 10.2668 10.8252H10.6668ZM10.7153 10.9416C10.6841 10.9105 10.6668 10.8687 10.6668 10.8252H10.2668C10.2668 10.9753 10.3267 11.1192 10.4331 11.225L10.7153 10.9416ZM10.8335 10.9902C10.789 10.9902 10.7465 10.9726 10.7153 10.9416L10.4331 11.225C10.5394 11.3309 10.6835 11.3902 10.8335 11.3902V10.9902ZM10.8335 14.3101H15.2335V13.9101H10.8335V14.3101ZM10.4331 14.145C10.5394 14.2508 10.6835 14.3101 10.8335 14.3101V13.9101C10.789 13.9101 10.7465 13.8925 10.7153 13.8615L10.4331 14.145ZM10.2668 13.7451C10.2668 13.8953 10.3267 14.0391 10.4331 14.145L10.7153 13.8615C10.6841 13.8305 10.6668 13.7886 10.6668 13.7451H10.2668ZM10.4331 13.3453C10.3267 13.4512 10.2668 13.595 10.2668 13.7451H10.6668C10.6668 13.7017 10.6841 13.6598 10.7153 13.6288L10.4331 13.3453ZM10.8335 13.1801C10.6835 13.1801 10.5394 13.2394 10.4331 13.3453L10.7153 13.6288C10.7465 13.5977 10.789 13.5801 10.8335 13.5801V13.1801ZM15.2335 13.1801H10.8335V13.5801H15.2335V13.1801ZM15.6338 13.3453C15.5275 13.2394 15.3835 13.1801 15.2335 13.1801V13.5801C15.278 13.5801 15.3205 13.5977 15.3516 13.6288L15.6338 13.3453ZM15.8001 13.7451C15.8001 13.595 15.7402 13.4512 15.6338 13.3453L15.3516 13.6288C15.3828 13.6598 15.4001 13.7017 15.4001 13.7451H15.8001ZM15.6338 14.145C15.7402 14.0391 15.8001 13.8953 15.8001 13.7451H15.4001C15.4001 13.7886 15.3828 13.8305 15.3516 13.8615L15.6338 14.145ZM15.2335 14.3101C15.3835 14.3101 15.5275 14.2508 15.6338 14.145L15.3516 13.8615C15.3205 13.8925 15.278 13.9101 15.2335 13.9101V14.3101Z" fill="#00385D" mask="url(#path-1-outside-1_77_5184)"/>
</svg>
