<svg width="18" height="18" viewBox="0 0 18 18" fill="none" xmlns="http://www.w3.org/2000/svg">
<g clip-path="url(#clip0_77_6160)">
<path d="M15.6957 0.708984H2.29984C1.68937 0.708984 1.1039 0.951568 0.672227 1.38337C0.240557 1.81517 -0.00195312 2.40082 -0.00195312 3.01148C-0.00195312 3.62215 0.240557 4.2078 0.672227 4.6396C1.1039 5.0714 1.68937 5.31398 2.29984 5.31398H2.84468V17.29L5.24394 15.939L7.11837 16.994L8.9978 15.939L10.8722 16.994L12.7466 15.939L15.1459 17.29V5.31498H15.6957C16.3064 5.31498 16.892 5.07235 17.3237 4.64045C17.7555 4.20855 17.998 3.62278 17.998 3.01198C17.998 2.40119 17.7555 1.81541 17.3237 1.38352C16.892 0.951621 16.3064 0.708984 15.6957 0.708984ZM2.29984 4.25998C1.96842 4.25998 1.65058 4.12829 1.41623 3.89387C1.18188 3.65945 1.05023 3.34151 1.05023 3.00998C1.05023 2.67846 1.18188 2.36052 1.41623 2.1261C1.65058 1.89168 1.96842 1.75998 2.29984 1.75998H2.84468V4.25998H2.29984ZM14.0962 15.487L12.7466 14.729L10.8722 15.784L8.9978 14.729L7.12337 15.784L5.24894 14.729L3.89935 15.487V1.76398H14.0962V15.487ZM15.6957 4.25998H15.1509V1.75998H15.6957C16.0272 1.75998 16.345 1.89168 16.5794 2.1261C16.8137 2.36052 16.9454 2.67846 16.9454 3.00998C16.9454 3.34151 16.8137 3.65945 16.5794 3.89387C16.345 4.12829 16.0272 4.25998 15.6957 4.25998Z" fill="#00385D"/>
<path d="M5.48438 8.28516H12.5154V9.34016H5.48438V8.28516Z" fill="#00385D"/>
<path d="M5.48438 10.3091H12.5154V11.3641H5.48438V10.3091Z" fill="#00385D"/>
<path d="M5.48438 12.333H12.5154V13.388H5.48438V12.333Z" fill="#00385D"/>
<path d="M8.99922 7.08975C9.45412 7.08975 9.8988 6.95485 10.277 6.70213C10.6553 6.4494 10.9501 6.09019 11.1241 5.66992C11.2982 5.24965 11.3438 4.7872 11.255 4.34104C11.1663 3.89488 10.9472 3.48506 10.6256 3.1634C10.3039 2.84174 9.89408 2.62269 9.44793 2.53394C9.00177 2.44519 8.53932 2.49074 8.11905 2.66482C7.69878 2.83891 7.33957 3.1337 7.08684 3.51194C6.83411 3.89017 6.69922 4.33485 6.69922 4.78975C6.70054 5.39934 6.94328 5.98359 7.37433 6.41463C7.80538 6.84568 8.38963 7.08843 8.99922 7.08975ZM8.99922 3.53875C9.24605 3.53875 9.48734 3.61194 9.69257 3.74907C9.8978 3.88621 10.0578 4.08112 10.1522 4.30916C10.2467 4.5372 10.2714 4.78813 10.2232 5.03022C10.1751 5.27231 10.0562 5.49468 9.88169 5.66922C9.70715 5.84375 9.48478 5.96261 9.24269 6.01077C9.0006 6.05892 8.74967 6.03421 8.52163 5.93975C8.29359 5.84529 8.09868 5.68533 7.96154 5.4801C7.82441 5.27487 7.75122 5.03358 7.75122 4.78675C7.75148 4.45584 7.88305 4.13856 8.11704 3.90457C8.35103 3.67058 8.66831 3.53901 8.99922 3.53875Z" fill="#00385D"/>
</g>
<defs>
<clipPath id="clip0_77_6160">
<rect width="18" height="18" fill="white"/>
</clipPath>
</defs>
</svg>
