<svg width="18" height="18" viewBox="0 0 18 18" fill="none" xmlns="http://www.w3.org/2000/svg">
<path d="M4.875 0C4.77554 0 4.68016 0.0395088 4.60984 0.109835C4.53951 0.180161 4.5 0.275544 4.5 0.375V3.375C4.5 3.47446 4.53951 3.56984 4.60984 3.64017C4.68016 3.71049 4.77554 3.75 4.875 3.75C4.97446 3.75 5.06984 3.71049 5.14016 3.64017C5.21049 3.56984 5.25 3.47446 5.25 3.375V0.375C5.25 0.275544 5.21049 0.180161 5.14016 0.109835C5.06984 0.0395088 4.97446 0 4.875 0V0Z" fill="#00385D"/>
<path d="M13.125 0C13.0255 0 12.9302 0.0395088 12.8598 0.109835C12.7895 0.180161 12.75 0.275544 12.75 0.375V3.375C12.75 3.47446 12.7895 3.56984 12.8598 3.64017C12.9302 3.71049 13.0255 3.75 13.125 3.75C13.2245 3.75 13.3198 3.71049 13.3902 3.64017C13.4605 3.56984 13.5 3.47446 13.5 3.375V0.375C13.5 0.275544 13.4605 0.180161 13.3902 0.109835C13.3198 0.0395088 13.2245 0 13.125 0V0Z" fill="#00385D"/>
<path d="M15.375 1.5H14.25V3.375C14.25 3.67337 14.1315 3.95952 13.9205 4.1705C13.7095 4.38147 13.4234 4.5 13.125 4.5C12.8266 4.5 12.5405 4.38147 12.3295 4.1705C12.1185 3.95952 12 3.67337 12 3.375V1.5H6V3.375C6 3.67337 5.88147 3.95952 5.6705 4.1705C5.45952 4.38147 5.17337 4.5 4.875 4.5C4.57663 4.5 4.29048 4.38147 4.0795 4.1705C3.86853 3.95952 3.75 3.67337 3.75 3.375V1.5H2.625C1.92905 1.50079 1.26183 1.77761 0.769722 2.26972C0.277611 2.76183 0.000794011 3.42905 0 4.125L0 5.25H18V4.125C17.9992 3.42905 17.7224 2.76183 17.2303 2.26972C16.7382 1.77761 16.0709 1.50079 15.375 1.5Z" fill="#00385D"/>
<path d="M0 6V15.375C0.000794011 16.0709 0.277611 16.7382 0.769722 17.2303C1.26183 17.7224 1.92905 17.9992 2.625 18H15.375C16.0709 17.9992 16.7382 17.7224 17.2303 17.2303C17.7224 16.7382 17.9992 16.0709 18 15.375V6H0Z" fill="#00385D"/>
</svg>
