<svg width="18" height="18" viewBox="0 0 18 18" fill="none" xmlns="http://www.w3.org/2000/svg">
<path d="M15.2692 1.55H15.2691H14.5316C14.414 1.55 14.3011 1.59675 14.2179 1.67997C14.1346 1.76319 14.0879 1.87606 14.0879 1.99375C14.0879 2.11144 14.1346 2.22431 14.2179 2.30753C14.3011 2.39075 14.414 2.4375 14.5316 2.4375H15.2691C15.738 2.438 16.1876 2.62452 16.5193 2.95613C16.8509 3.28774 17.0374 3.73736 17.0379 4.20633V15.2687C17.0374 15.7376 16.8509 16.1873 16.5193 16.5189C16.1876 16.8505 15.738 17.037 15.2691 17.0375H2.73172C2.26275 17.037 1.81313 16.8505 1.48152 16.5189C1.14991 16.1873 0.96339 15.7376 0.962891 15.2687V4.20633C0.96339 3.73736 1.14991 3.28774 1.48152 2.95613C1.81313 2.62452 2.26275 2.438 2.73172 2.4375H3.46914C3.58683 2.4375 3.6997 2.39075 3.78292 2.30753C3.86614 2.22431 3.91289 2.11144 3.91289 1.99375C3.91289 1.87606 3.86614 1.76319 3.78292 1.67997C3.6997 1.59675 3.58683 1.55 3.46914 1.55L2.73164 1.55L2.73155 1.55C2.02734 1.5508 1.3522 1.83091 0.854251 2.32886C0.356297 2.82681 0.0761941 3.50195 0.0753906 4.20616V4.20625L0.0753906 15.2688L0.0753907 15.2688C0.0761941 15.973 0.356297 16.6482 0.854251 17.1461C1.3522 17.6441 2.02734 17.9242 2.73155 17.925H2.73164H15.2691H15.2692C15.9734 17.9242 16.6486 17.6441 17.1465 17.1461C17.6445 16.6482 17.9246 15.973 17.9254 15.2688V15.2688V4.20625V4.20616C17.9246 3.50195 17.6445 2.82681 17.1465 2.32886C16.6486 1.83091 15.9734 1.5508 15.2692 1.55Z" fill="#00385D" stroke="#00385D" stroke-width="0.15"/>
<path d="M11.5801 1.55H6.41758C6.29989 1.55 6.18702 1.59675 6.1038 1.67997C6.02058 1.76319 5.97383 1.87606 5.97383 1.99375C5.97383 2.11144 6.02058 2.22431 6.1038 2.30753C6.18702 2.39075 6.29989 2.4375 6.41758 2.4375H11.5801C11.6978 2.4375 11.8106 2.39075 11.8939 2.30753C11.9771 2.22431 12.0238 2.11144 12.0238 1.99375C12.0238 1.87606 11.9771 1.76319 11.8939 1.67997C11.8106 1.59675 11.6978 1.55 11.5801 1.55Z" fill="#00385D" stroke="#00385D" stroke-width="0.15"/>
<path d="M17.4816 5.2375H0.519141C0.401451 5.2375 0.288581 5.28425 0.205362 5.36747C0.122143 5.45069 0.0753906 5.56356 0.0753906 5.68125C0.0753906 5.79894 0.122143 5.91181 0.205362 5.99503C0.288581 6.07825 0.401451 6.125 0.519141 6.125H17.4816C17.5993 6.125 17.7122 6.07825 17.7954 5.99503C17.8786 5.91181 17.9254 5.79894 17.9254 5.68125C17.9254 5.56356 17.8786 5.45069 17.7954 5.36747C17.7122 5.28425 17.5993 5.2375 17.4816 5.2375Z" fill="#00385D" stroke="#00385D" stroke-width="0.15"/>
<path d="M5.01943 0.0812844V0.0749023H4.94443C4.82674 0.0749023 4.71387 0.121654 4.63066 0.204874C4.54744 0.288093 4.50068 0.400962 4.50068 0.518652V3.46865C4.50068 3.58634 4.54744 3.69921 4.63066 3.78243C4.71387 3.86565 4.82674 3.9124 4.94443 3.9124C5.06212 3.9124 5.17499 3.86565 5.25821 3.78243C5.34143 3.69921 5.38818 3.58634 5.38818 3.46865V0.518652C5.38818 0.400962 5.34143 0.288093 5.25821 0.204874C5.19289 0.139548 5.10929 0.0966931 5.01943 0.0812844Z" fill="#00385D" stroke="#00385D" stroke-width="0.15"/>
<path d="M13.1325 0.0812844V0.0749023H13.0575C12.9398 0.0749023 12.8269 0.121654 12.7437 0.204874C12.6605 0.288093 12.6137 0.400963 12.6137 0.518652V3.46865C12.6137 3.58634 12.6605 3.69921 12.7437 3.78243C12.8269 3.86565 12.9398 3.9124 13.0575 3.9124C13.1752 3.9124 13.288 3.86565 13.3712 3.78243C13.4545 3.69921 13.5012 3.58634 13.5012 3.46865V0.518652C13.5012 0.400963 13.4545 0.288093 13.3712 0.204874C13.3059 0.139548 13.2223 0.0966931 13.1325 0.0812844Z" fill="#00385D" stroke="#00385D" stroke-width="0.15"/>
</svg>
