<svg width="18" height="18" viewBox="0 0 18 18" fill="none" xmlns="http://www.w3.org/2000/svg">
<g clip-path="url(#clip0_83_4885)">
<path fill-rule="evenodd" clip-rule="evenodd" d="M9.96377 16.9411C11.0747 17.5117 12.2838 17.8686 13.5276 17.9918H13.5375C13.5778 17.9918 13.6183 17.9935 13.6603 17.9953C13.7009 17.9969 13.744 17.9987 13.7882 17.9988C14.2283 18.0116 14.6659 17.9286 15.0704 17.7555C15.4748 17.5825 15.8363 17.3237 16.1298 16.9971C16.1382 16.9884 16.1456 16.9789 16.1521 16.9688C16.3728 16.7155 16.607 16.4741 16.8536 16.2457L16.8548 16.2446C17.0281 16.0789 17.2061 15.9057 17.3775 15.7281C17.5735 15.5518 17.7301 15.3364 17.8373 15.0959C17.945 14.8543 18.0003 14.5927 17.9996 14.3283C17.9989 14.0639 17.9423 13.8027 17.8333 13.5616C17.7248 13.3214 17.5668 13.1067 17.3696 12.9312L15.1471 10.7182C14.9733 10.5264 14.7619 10.3722 14.526 10.2648C14.2893 10.1571 14.033 10.0989 13.7728 10.0938L13.7684 10.0939C13.5066 10.1005 13.2489 10.1592 13.0102 10.2666C12.7722 10.3736 12.5581 10.527 12.3803 10.7176L11.1096 11.9801C11.0177 11.9297 10.9252 11.8834 10.8383 11.8398L10.8049 11.8231L10.8034 11.8223C10.6674 11.757 10.5348 11.6849 10.4061 11.6063C9.14021 10.787 8.01645 9.76833 7.07877 8.59006L7.07735 8.58835C6.64276 8.06651 6.27708 7.49153 5.98916 6.87747C6.31094 6.58474 6.61351 6.28062 6.90782 5.98478L6.93139 5.96111L6.93228 5.96019C7.01116 5.87884 7.09178 5.79826 7.17326 5.71682L7.2703 5.61968C7.46514 5.44143 7.62254 5.2264 7.73333 4.98704C7.84446 4.74695 7.90669 4.48721 7.91594 4.22298L7.91572 4.21624C7.90717 3.9518 7.84546 3.69175 7.73425 3.45149C7.62335 3.2119 7.46548 2.99684 7.26995 2.81895L6.16335 1.72196C6.03386 1.59302 5.91197 1.46868 5.78723 1.33954C5.54396 1.08942 5.29055 0.830072 5.03361 0.595939C4.85611 0.411736 4.64383 0.264283 4.40896 0.16204C4.17305 0.0593462 3.91905 0.00422179 3.66164 0L3.65771 9.02489e-05C3.13448 0.0120921 2.63675 0.22783 2.27132 0.601131L0.881877 1.97976C0.371229 2.47933 0.0606096 3.14703 0.0082304 3.85813L0.00811174 3.86052C-0.0427035 4.88426 0.135392 5.90644 0.52952 6.85326C1.25212 8.73421 2.29961 10.4747 3.62462 11.9961C5.36005 14.0751 7.5213 15.761 9.96377 16.9411ZM1.10618 3.92695C1.06544 4.78332 1.21524 5.63822 1.54505 6.43054L1.5509 6.44459L1.55635 6.45879C2.23279 8.21956 3.21345 9.84913 4.45413 11.2737L4.46169 11.2824L4.46907 11.2912C6.10405 13.2499 8.14049 14.8385 10.4423 15.9507L10.4544 15.9565L10.4664 15.9627C11.4402 16.4629 12.4989 16.7784 13.5882 16.8923C13.6314 16.8931 13.6703 16.8947 13.6984 16.8959L13.7005 16.896L13.7059 16.8962C13.7493 16.898 13.7708 16.8988 13.7892 16.8988L13.8048 16.8988L13.8204 16.8992C14.101 16.9074 14.38 16.8545 14.6377 16.7442C14.8762 16.6422 15.091 16.4934 15.2695 16.3072L15.3227 16.2462C15.5673 15.9655 15.8266 15.698 16.0996 15.4447C16.2671 15.2845 16.4312 15.1245 16.5862 14.9641L16.613 14.9363L16.6417 14.9104C16.7233 14.837 16.7883 14.7476 16.8326 14.6481C16.8771 14.5482 16.8999 14.4402 16.8996 14.3312C16.8993 14.2222 16.876 14.1143 16.8309 14.0146C16.786 13.9153 16.7205 13.8261 16.6384 13.7531L16.6153 13.7325L14.351 11.4778L14.3322 11.457C14.2592 11.3765 14.1701 11.3114 14.0704 11.266C13.9771 11.2236 13.8767 11.1993 13.7746 11.1944C13.6664 11.1998 13.5602 11.2253 13.4616 11.2697C13.3567 11.3169 13.2627 11.3843 13.1848 11.4678L13.1705 11.4831L11.7258 12.9185C11.4742 13.1685 11.0881 13.223 10.7772 13.0524L10.5806 12.9446C10.5094 12.9055 10.4349 12.8681 10.3454 12.8232L10.3191 12.81C10.1526 12.7298 9.99023 12.6413 9.83256 12.5449L9.82043 12.5375L9.8085 12.5298C8.44608 11.6481 7.23609 10.5521 6.22565 9.28455C5.73378 8.6926 5.31964 8.04065 4.9932 7.34445L4.89926 7.14409C4.75031 6.82642 4.82573 6.44878 5.08525 6.21269L5.24895 6.06378C5.5472 5.79246 5.8308 5.50771 6.12801 5.20897L6.14676 5.19013C6.23028 5.10408 6.3145 5.0199 6.39281 4.94164L6.39507 4.93938L6.50955 4.82478L6.52781 4.80807C6.61525 4.72807 6.68564 4.63181 6.73508 4.52499C6.77993 4.42809 6.80675 4.32467 6.81466 4.21973C6.80734 4.11397 6.78075 4.01021 6.736 3.91354C6.68688 3.80741 6.6168 3.71184 6.5297 3.63259L6.51227 3.61674L5.38718 2.50142C5.25203 2.36684 5.12544 2.2377 4.99738 2.10513C4.75202 1.85287 4.52112 1.61713 4.29272 1.409L4.26631 1.38494L4.24151 1.35921C4.16457 1.27936 4.07231 1.2152 3.96991 1.17062C3.87309 1.12847 3.76933 1.10469 3.66402 1.10043C3.43407 1.11049 3.21714 1.20742 3.05737 1.37062L3.05177 1.37634L1.65114 2.76607C1.33444 3.0759 1.14141 3.48822 1.10618 3.92695Z" fill="#00385D"/>
</g>
<defs>
<clipPath id="clip0_83_4885">
<rect width="18" height="18" fill="white"/>
</clipPath>
</defs>
</svg>
