<svg width="18" height="18" viewBox="0 0 18 18" fill="none" xmlns="http://www.w3.org/2000/svg">
<path d="M8.78501 11.2261C8.90333 11.4465 8.96518 11.6929 8.96501 11.9431V12.2201C8.96501 12.3302 8.92132 12.4359 8.84352 12.5139C8.76572 12.5919 8.66017 12.6358 8.55001 12.6361H4.40001C4.28985 12.6358 4.1843 12.5919 4.1065 12.5139C4.0287 12.4359 3.98501 12.3302 3.98501 12.2201V11.9431C3.98484 11.6929 4.04669 11.4465 4.16501 11.2261H2.32001V12.7731C2.31962 12.9734 2.35871 13.1718 2.43506 13.357C2.51141 13.5422 2.62351 13.7105 2.76496 13.8523C2.90641 13.9941 3.07443 14.1067 3.25941 14.1835C3.44439 14.2603 3.64271 14.2999 3.84301 14.3001H14.086C14.4897 14.2998 14.8768 14.1394 15.1623 13.8541C15.4478 13.5687 15.6085 13.1817 15.609 12.7781V11.2271L8.78501 11.2261ZM13.533 12.6351H10.487C10.3803 12.6298 10.2798 12.5838 10.2061 12.5064C10.1325 12.4291 10.0914 12.3264 10.0914 12.2196C10.0914 12.1128 10.1325 12.0101 10.2061 11.9327C10.2798 11.8554 10.3803 11.8093 10.487 11.8041H13.533C13.6397 11.8093 13.7403 11.8554 13.8139 11.9327C13.8875 12.0101 13.9286 12.1128 13.9286 12.2196C13.9286 12.3264 13.8875 12.4291 13.8139 12.5064C13.7403 12.5838 13.6397 12.6298 13.533 12.6351Z" fill="#2196F3"/>
<path d="M5.86601 9.7259C5.58479 9.58866 5.35839 9.36017 5.22372 9.07772C5.08906 8.79526 5.05409 8.47551 5.12452 8.17062C5.19494 7.86573 5.36661 7.59371 5.61151 7.39893C5.85641 7.20415 6.16009 7.09811 6.47301 7.09811C6.78592 7.09811 7.0896 7.20415 7.3345 7.39893C7.5794 7.59371 7.75107 7.86573 7.8215 8.17062C7.89193 8.47551 7.85695 8.79526 7.72229 9.07772C7.58763 9.36017 7.36122 9.58866 7.08001 9.7259H10.18C10.2188 9.68305 10.2662 9.6488 10.3191 9.62538C10.372 9.60195 10.4292 9.58987 10.487 9.5899H13.533C13.5908 9.58987 13.648 9.60195 13.7009 9.62538C13.7538 9.6488 13.8012 9.68305 13.84 9.7259H15.609V5.8529C15.6087 5.44906 15.4482 5.06183 15.1626 4.77627C14.8771 4.49071 14.4899 4.33017 14.086 4.3299H11.179V4.1919C11.1787 3.93499 11.0766 3.68867 10.8949 3.50701C10.7132 3.32534 10.4669 3.22317 10.21 3.2229H7.71901C7.46209 3.22317 7.21578 3.32534 7.03411 3.50701C6.85245 3.68867 6.75027 3.93499 6.75001 4.1919V4.3299H3.84301C3.43916 4.33017 3.05194 4.49071 2.76638 4.77627C2.48082 5.06183 2.32027 5.44906 2.32001 5.8529V9.7259H5.86601ZM10.487 7.3749H13.533C13.6397 7.38014 13.7403 7.4262 13.8139 7.50354C13.8875 7.58089 13.9286 7.6836 13.9286 7.7904C13.9286 7.8972 13.8875 7.99991 13.8139 8.07726C13.7403 8.15461 13.6397 8.20067 13.533 8.2059H10.487C10.3803 8.20067 10.2798 8.15461 10.2061 8.07726C10.1325 7.99991 10.0914 7.8972 10.0914 7.7904C10.0914 7.6836 10.1325 7.58089 10.2061 7.50354C10.2798 7.4262 10.3803 7.38014 10.487 7.3749V7.3749ZM7.85701 4.3299H10.072V5.4379H7.85701V4.3299Z" fill="#2196F3"/>
<path d="M17.25 9.75H0.75C0.551088 9.75 0.360322 9.67098 0.21967 9.53033C0.0790176 9.38968 0 9.19891 0 9C0 8.80109 0.0790176 8.61032 0.21967 8.46967C0.360322 8.32902 0.551088 8.25 0.75 8.25H17.25C17.4489 8.25 17.6397 8.32902 17.7803 8.46967C17.921 8.61032 18 8.80109 18 9C18 9.19891 17.921 9.38968 17.7803 9.53033C17.6397 9.67098 17.4489 9.75 17.25 9.75Z" fill="#2196F3"/>
<path d="M3.75 0H2.25C1.65343 0.000529583 1.08144 0.237753 0.659595 0.659595C0.237753 1.08144 0.000529583 1.65343 0 2.25L0 3.75C0 3.94891 0.0790176 4.13968 0.21967 4.28033C0.360322 4.42098 0.551088 4.5 0.75 4.5C0.948912 4.5 1.13968 4.42098 1.28033 4.28033C1.42098 4.13968 1.5 3.94891 1.5 3.75V2.25C1.50026 2.05117 1.57937 1.86056 1.71996 1.71996C1.86056 1.57937 2.05117 1.50026 2.25 1.5H3.75C3.94891 1.5 4.13968 1.42098 4.28033 1.28033C4.42098 1.13968 4.5 0.948912 4.5 0.75C4.5 0.551088 4.42098 0.360322 4.28033 0.21967C4.13968 0.0790176 3.94891 0 3.75 0V0Z" fill="#2196F3"/>
<path d="M3.75 16.5H2.25C2.05117 16.4997 1.86056 16.4206 1.71996 16.28C1.57937 16.1394 1.50026 15.9488 1.5 15.75V14.25C1.5 14.0511 1.42098 13.8603 1.28033 13.7197C1.13968 13.579 0.948912 13.5 0.75 13.5C0.551088 13.5 0.360322 13.579 0.21967 13.7197C0.0790176 13.8603 0 14.0511 0 14.25L0 15.75C0.000529583 16.3466 0.237753 16.9186 0.659595 17.3404C1.08144 17.7622 1.65343 17.9995 2.25 18H3.75C3.94891 18 4.13968 17.921 4.28033 17.7803C4.42098 17.6397 4.5 17.4489 4.5 17.25C4.5 17.0511 4.42098 16.8603 4.28033 16.7197C4.13968 16.579 3.94891 16.5 3.75 16.5V16.5Z" fill="#2196F3"/>
<path d="M15.75 0H14.25C14.0511 0 13.8603 0.0790176 13.7197 0.21967C13.579 0.360322 13.5 0.551088 13.5 0.75C13.5 0.948912 13.579 1.13968 13.7197 1.28033C13.8603 1.42098 14.0511 1.5 14.25 1.5H15.75C15.9488 1.50026 16.1394 1.57937 16.28 1.71996C16.4206 1.86056 16.4997 2.05117 16.5 2.25V3.75C16.5 3.94891 16.579 4.13968 16.7197 4.28033C16.8603 4.42098 17.0511 4.5 17.25 4.5C17.4489 4.5 17.6397 4.42098 17.7803 4.28033C17.921 4.13968 18 3.94891 18 3.75V2.25C17.9995 1.65343 17.7622 1.08144 17.3404 0.659595C16.9186 0.237753 16.3466 0.000529583 15.75 0V0Z" fill="#2196F3"/>
<path d="M17.25 13.5C17.0511 13.5 16.8603 13.579 16.7197 13.7197C16.579 13.8603 16.5 14.0511 16.5 14.25V15.75C16.4997 15.9488 16.4206 16.1394 16.28 16.28C16.1394 16.4206 15.9488 16.4997 15.75 16.5H14.25C14.0511 16.5 13.8603 16.579 13.7197 16.7197C13.579 16.8603 13.5 17.0511 13.5 17.25C13.5 17.4489 13.579 17.6397 13.7197 17.7803C13.8603 17.921 14.0511 18 14.25 18H15.75C16.3466 17.9995 16.9186 17.7622 17.3404 17.3404C17.7622 16.9186 17.9995 16.3466 18 15.75V14.25C18 14.0511 17.921 13.8603 17.7803 13.7197C17.6397 13.579 17.4489 13.5 17.25 13.5Z" fill="#2196F3"/>
</svg>
