<svg width="16" height="16" viewBox="0 0 16 16" fill="none" xmlns="http://www.w3.org/2000/svg">
<path fill-rule="evenodd" clip-rule="evenodd" d="M3.55544 1.34824C4.87103 0.469192 6.41775 0 8 0C10.121 0.00238211 12.1545 0.846002 13.6542 2.34578C15.154 3.84555 15.9976 5.879 16 8C16 9.58225 15.5308 11.129 14.6518 12.4446C13.7727 13.7602 12.5233 14.7855 11.0615 15.391C9.59966 15.9965 7.99113 16.155 6.43928 15.8463C4.88743 15.5376 3.46197 14.7757 2.34315 13.6569C1.22433 12.538 0.462403 11.1126 0.153721 9.56072C-0.15496 8.00887 0.00346626 6.40034 0.608967 4.93853C1.21447 3.47672 2.23985 2.22729 3.55544 1.34824ZM4.66658 12.9888C5.65328 13.6481 6.81331 14 8 14C9.59081 13.9984 11.116 13.3658 12.2409 12.2409C13.3658 11.116 13.9984 9.59081 14 8C14 6.81331 13.6481 5.65328 12.9888 4.66658C12.3295 3.67989 11.3925 2.91085 10.2961 2.45673C9.19975 2.0026 7.99335 1.88378 6.82946 2.11529C5.66558 2.3468 4.59648 2.91825 3.75736 3.75736C2.91825 4.59648 2.3468 5.66558 2.11529 6.82946C1.88378 7.99335 2.0026 9.19975 2.45673 10.2961C2.91085 11.3925 3.67989 12.3295 4.66658 12.9888ZM12 8C12 8.79113 11.7654 9.56448 11.3259 10.2223C10.8864 10.8801 10.2616 11.3928 9.53074 11.6955C8.79983 11.9983 7.99556 12.0775 7.21964 11.9231C6.44372 11.7688 5.73098 11.3878 5.17157 10.8284C4.61216 10.269 4.2312 9.55628 4.07686 8.78036C3.92252 8.00444 4.00173 7.20017 4.30448 6.46927C4.60723 5.73836 5.11992 5.11365 5.77772 4.67412C6.43552 4.2346 7.20888 4 8 4C9.06087 4 10.0783 4.42143 10.8284 5.17157C11.5786 5.92172 12 6.93913 12 8ZM9.66294 9.11114C9.8827 8.78224 10 8.39556 10 8C10 7.46957 9.78929 6.96086 9.41422 6.58579C9.03914 6.21071 8.53043 6 8 6C7.60444 6 7.21776 6.1173 6.88886 6.33706C6.55996 6.55682 6.30362 6.86918 6.15224 7.23463C6.00087 7.60009 5.96126 8.00222 6.03843 8.39018C6.1156 8.77814 6.30608 9.13451 6.58579 9.41421C6.86549 9.69392 7.22186 9.8844 7.60982 9.96157C7.99778 10.0387 8.39992 9.99913 8.76537 9.84776C9.13082 9.69638 9.44318 9.44004 9.66294 9.11114Z" fill="#237DF1"/>
</svg>
