<svg width="18" height="18" viewBox="0 0 18 18" fill="none" xmlns="http://www.w3.org/2000/svg">
<path d="M9.76924 17.7635C9.85676 17.851 9.97546 17.9002 10.0992 17.9002C10.223 17.9002 10.3417 17.851 10.4292 17.7635C10.5167 17.676 10.5659 17.5573 10.5659 17.4335V0.566862C10.5659 0.443095 10.5167 0.324396 10.4292 0.236879C10.3417 0.149362 10.223 0.100195 10.0992 0.100195H2.03256C1.90879 0.100195 1.79009 0.149362 1.70258 0.236879C1.61506 0.324396 1.56589 0.443094 1.56589 0.566862V17.4335C1.56589 17.5573 1.61506 17.676 1.70258 17.7635C1.79009 17.851 1.90879 17.9002 2.03256 17.9002C2.15633 17.9002 2.27503 17.851 2.36254 17.7635C2.45006 17.676 2.49923 17.5573 2.49923 17.4335V1.03353H9.63256V17.4335C9.63256 17.5573 9.68173 17.676 9.76924 17.7635Z" fill="#00385D" stroke="#00385D" stroke-width="0.2"/>
<path d="M16.3683 17.7638C16.4558 17.8514 16.5745 17.9005 16.6983 17.9005C16.8221 17.9005 16.9408 17.8514 17.0283 17.7638C17.1158 17.6763 17.165 17.5576 17.165 17.4339V4.23385C17.165 4.11009 17.1158 3.99139 17.0283 3.90387C16.9408 3.81635 16.8221 3.76719 16.6983 3.76719H12.2983C12.1745 3.76719 12.0558 3.81635 11.9683 3.90387C11.8808 3.99139 11.8316 4.11009 11.8316 4.23385C11.8316 4.35762 11.8808 4.47632 11.9683 4.56384C12.0558 4.65135 12.1745 4.70052 12.2983 4.70052H16.2316V17.4339C16.2316 17.5576 16.2808 17.6763 16.3683 17.7638Z" fill="#00385D" stroke="#00385D" stroke-width="0.2"/>
<path d="M3.90192 8.22972C3.98943 8.31724 4.10813 8.36641 4.2319 8.36641C4.35567 8.36641 4.47437 8.31724 4.56188 8.22972C4.6494 8.14221 4.69857 8.02351 4.69857 7.89974V6.43307C4.69857 6.30931 4.6494 6.19061 4.56188 6.10309C4.47437 6.01557 4.35567 5.96641 4.2319 5.96641C4.10813 5.96641 3.98943 6.01557 3.90192 6.10309C3.8144 6.19061 3.76523 6.30931 3.76523 6.43307V7.89974C3.76523 8.02351 3.8144 8.14221 3.90192 8.22972Z" fill="#00385D" stroke="#00385D" stroke-width="0.2"/>
<path d="M7.56989 8.22972C7.6574 8.31724 7.7761 8.36641 7.89987 8.36641C8.02364 8.36641 8.14234 8.31724 8.22985 8.22972C8.31737 8.14221 8.36654 8.02351 8.36654 7.89974V6.43307C8.36654 6.30931 8.31737 6.19061 8.22985 6.10309C8.14234 6.01557 8.02364 5.96641 7.89987 5.96641C7.7761 5.96641 7.6574 6.01557 7.56989 6.10309C7.48237 6.19061 7.4332 6.30931 7.4332 6.43307V7.89974C7.4332 8.02351 7.48237 8.14221 7.56989 8.22972Z" fill="#00385D" stroke="#00385D" stroke-width="0.2"/>
<path d="M3.90192 4.56371C3.98943 4.65122 4.10813 4.70039 4.2319 4.70039C4.35567 4.70039 4.47437 4.65122 4.56188 4.56371C4.6494 4.47619 4.69857 4.35749 4.69857 4.23372V2.76706C4.69857 2.64329 4.6494 2.52459 4.56188 2.43707C4.47437 2.34956 4.35567 2.30039 4.2319 2.30039C4.10813 2.30039 3.98943 2.34956 3.90192 2.43707C3.8144 2.52459 3.76523 2.64329 3.76523 2.76706V4.23372C3.76523 4.35749 3.8144 4.47619 3.90192 4.56371Z" fill="#00385D" stroke="#00385D" stroke-width="0.2"/>
<path d="M7.56989 4.56371C7.6574 4.65122 7.7761 4.70039 7.89987 4.70039C8.02364 4.70039 8.14234 4.65122 8.22985 4.56371C8.31737 4.47619 8.36654 4.35749 8.36654 4.23372V2.76706C8.36654 2.64329 8.31737 2.52459 8.22985 2.43707C8.14234 2.34956 8.02364 2.30039 7.89987 2.30039C7.7761 2.30039 7.6574 2.34956 7.56989 2.43707C7.48237 2.52459 7.4332 2.64329 7.4332 2.76706V4.23372C7.4332 4.35749 7.48237 4.47619 7.56989 4.56371Z" fill="#00385D" stroke="#00385D" stroke-width="0.2"/>
<path d="M3.90192 11.8967C3.98943 11.9842 4.10813 12.0334 4.2319 12.0334C4.35567 12.0334 4.47437 11.9842 4.56188 11.8967C4.6494 11.8092 4.69857 11.6905 4.69857 11.5667V10.1001C4.69857 9.9763 4.6494 9.8576 4.56188 9.77008C4.47437 9.68256 4.35567 9.6334 4.2319 9.6334C4.10813 9.6334 3.98943 9.68256 3.90192 9.77008C3.8144 9.8576 3.76523 9.9763 3.76523 10.1001V11.5667C3.76523 11.6905 3.8144 11.8092 3.90192 11.8967Z" fill="#00385D" stroke="#00385D" stroke-width="0.2"/>
<path d="M7.56989 11.8967C7.6574 11.9842 7.7761 12.0334 7.89987 12.0334C8.02364 12.0334 8.14234 11.9842 8.22985 11.8967C8.31737 11.8092 8.36654 11.6905 8.36654 11.5667V10.1001C8.36654 9.9763 8.31737 9.8576 8.22985 9.77008C8.14234 9.68256 8.02364 9.6334 7.89987 9.6334C7.7761 9.6334 7.6574 9.68256 7.56989 9.77008C7.48237 9.8576 7.4332 9.9763 7.4332 10.1001V11.5667C7.4332 11.6905 7.48237 11.8092 7.56989 11.8967Z" fill="#00385D" stroke="#00385D" stroke-width="0.2"/>
<path d="M3.90192 15.5637C3.98943 15.6512 4.10813 15.7004 4.2319 15.7004C4.35567 15.7004 4.47437 15.6512 4.56188 15.5637C4.6494 15.4762 4.69857 15.3575 4.69857 15.2337V13.7671C4.69857 13.6433 4.6494 13.5246 4.56188 13.4371C4.47437 13.3496 4.35567 13.3004 4.2319 13.3004C4.10813 13.3004 3.98943 13.3496 3.90192 13.4371C3.8144 13.5246 3.76523 13.6433 3.76523 13.7671V15.2337C3.76523 15.3575 3.8144 15.4762 3.90192 15.5637Z" fill="#00385D" stroke="#00385D" stroke-width="0.2"/>
<path d="M7.56989 15.5637C7.6574 15.6512 7.7761 15.7004 7.89987 15.7004C8.02364 15.7004 8.14234 15.6512 8.22985 15.5637C8.31737 15.4762 8.36654 15.3575 8.36654 15.2337V13.7671C8.36654 13.6433 8.31737 13.5246 8.22985 13.4371C8.14234 13.3496 8.02364 13.3004 7.89987 13.3004C7.7761 13.3004 7.6574 13.3496 7.56989 13.4371C7.48237 13.5246 7.4332 13.6433 7.4332 13.7671V15.2337C7.4332 15.3575 7.48237 15.4762 7.56989 15.5637Z" fill="#00385D" stroke="#00385D" stroke-width="0.2"/>
<path d="M11.9683 11.8967C12.0558 11.9842 12.1745 12.0334 12.2983 12.0334C12.4221 12.0334 12.5408 11.9842 12.6283 11.8967C12.7158 11.8092 12.765 11.6905 12.765 11.5667V10.1001C12.765 9.9763 12.7158 9.8576 12.6283 9.77008C12.5408 9.68256 12.4221 9.6334 12.2983 9.6334C12.1745 9.6334 12.0558 9.68256 11.9683 9.77008C11.8808 9.8576 11.8316 9.9763 11.8316 10.1001V11.5667C11.8316 11.6905 11.8808 11.8092 11.9683 11.8967Z" fill="#00385D" stroke="#00385D" stroke-width="0.2"/>
<path d="M14.1695 11.8967C14.257 11.9842 14.3757 12.0334 14.4995 12.0334C14.6232 12.0334 14.7419 11.9842 14.8295 11.8967C14.917 11.8092 14.9661 11.6905 14.9661 11.5667V10.1001C14.9661 9.9763 14.917 9.8576 14.8295 9.77008C14.7419 9.68256 14.6232 9.6334 14.4995 9.6334C14.3757 9.6334 14.257 9.68256 14.1695 9.77008C14.082 9.8576 14.0328 9.9763 14.0328 10.1001V11.5667C14.0328 11.6905 14.082 11.8092 14.1695 11.8967Z" fill="#00385D" stroke="#00385D" stroke-width="0.2"/>
<path d="M11.9683 8.22972C12.0558 8.31724 12.1745 8.36641 12.2983 8.36641C12.4221 8.36641 12.5408 8.31724 12.6283 8.22972C12.7158 8.14221 12.765 8.02351 12.765 7.89974V6.43307C12.765 6.30931 12.7158 6.19061 12.6283 6.10309C12.5408 6.01557 12.4221 5.96641 12.2983 5.96641C12.1745 5.96641 12.0558 6.01557 11.9683 6.10309C11.8808 6.19061 11.8316 6.30931 11.8316 6.43307V7.89974C11.8316 8.02351 11.8808 8.14221 11.9683 8.22972Z" fill="#00385D" stroke="#00385D" stroke-width="0.2"/>
<path d="M14.1695 8.22972C14.257 8.31724 14.3757 8.36641 14.4995 8.36641C14.6232 8.36641 14.7419 8.31724 14.8295 8.22972C14.917 8.14221 14.9661 8.02351 14.9661 7.89974V6.43307C14.9661 6.30931 14.917 6.19061 14.8295 6.10309C14.7419 6.01557 14.6232 5.96641 14.4995 5.96641C14.3757 5.96641 14.257 6.01557 14.1695 6.10309C14.082 6.19061 14.0328 6.30931 14.0328 6.43307V7.89974C14.0328 8.02351 14.082 8.14221 14.1695 8.22972Z" fill="#00385D" stroke="#00385D" stroke-width="0.2"/>
<path d="M11.9683 15.5637C12.0558 15.6512 12.1745 15.7004 12.2983 15.7004C12.4221 15.7004 12.5408 15.6512 12.6283 15.5637C12.7158 15.4762 12.765 15.3575 12.765 15.2337V13.7671C12.765 13.6433 12.7158 13.5246 12.6283 13.4371C12.5408 13.3496 12.4221 13.3004 12.2983 13.3004C12.1745 13.3004 12.0558 13.3496 11.9683 13.4371C11.8808 13.5246 11.8316 13.6433 11.8316 13.7671V15.2337C11.8316 15.3575 11.8808 15.4762 11.9683 15.5637Z" fill="#00385D" stroke="#00385D" stroke-width="0.2"/>
<path d="M14.1695 15.5637C14.257 15.6512 14.3757 15.7004 14.4995 15.7004C14.6232 15.7004 14.7419 15.6512 14.8295 15.5637C14.917 15.4762 14.9661 15.3575 14.9661 15.2337V13.7671C14.9661 13.6433 14.917 13.5246 14.8295 13.4371C14.7419 13.3496 14.6232 13.3004 14.4995 13.3004C14.3757 13.3004 14.257 13.3496 14.1695 13.4371C14.082 13.5246 14.0328 13.6433 14.0328 13.7671V15.2337C14.0328 15.3575 14.082 15.4762 14.1695 15.5637Z" fill="#00385D" stroke="#00385D" stroke-width="0.2"/>
<path d="M0.565885 17.8997H17.4326C17.5563 17.8997 17.675 17.8506 17.7625 17.7631C17.8501 17.6755 17.8992 17.5568 17.8992 17.4331C17.8992 17.3093 17.8501 17.1906 17.7625 17.1031C17.675 17.0156 17.5563 16.9664 17.4326 16.9664H0.565885C0.442118 16.9664 0.323419 17.0156 0.235902 17.1031C0.148385 17.1906 0.0992187 17.3093 0.0992187 17.4331C0.0992187 17.5568 0.148385 17.6755 0.235902 17.7631C0.323419 17.8506 0.442118 17.8997 0.565885 17.8997Z" fill="#00385D" stroke="#00385D" stroke-width="0.2"/>
</svg>
