<svg width="18" height="18" viewBox="0 0 18 18" fill="none" xmlns="http://www.w3.org/2000/svg">
<path d="M9 0C7.21997 0 5.47991 0.527841 3.99987 1.51677C2.51983 2.50571 1.36628 3.91131 0.685088 5.55585C0.00389957 7.20038 -0.17433 9.00998 0.172937 10.7558C0.520203 12.5016 1.37737 14.1053 2.63604 15.364C3.89472 16.6226 5.49836 17.4798 7.24419 17.8271C8.99002 18.1743 10.7996 17.9961 12.4442 17.3149C14.0887 16.6337 15.4943 15.4802 16.4832 14.0001C17.4722 12.5201 18 10.78 18 9C17.9974 6.61386 17.0483 4.32622 15.361 2.63896C13.6738 0.951708 11.3861 0.00264685 9 0V0ZM13.28 13.655C13.2104 13.7247 13.1278 13.7799 13.0369 13.8176C12.9459 13.8553 12.8485 13.8748 12.75 13.8748C12.6516 13.8748 12.5541 13.8553 12.4631 13.8176C12.3722 13.7799 12.2896 13.7247 12.22 13.655L8.47 9.905C8.40021 9.83552 8.34484 9.75293 8.30708 9.66197C8.26932 9.57101 8.24993 9.47348 8.25 9.375V4.5C8.25 4.30109 8.32902 4.11032 8.46967 3.96967C8.61033 3.82902 8.80109 3.75 9 3.75C9.19892 3.75 9.38968 3.82902 9.53033 3.96967C9.67099 4.11032 9.75 4.30109 9.75 4.5V9.065L13.28 12.595C13.3497 12.6646 13.4049 12.7472 13.4426 12.8381C13.4803 12.9291 13.4998 13.0266 13.4998 13.125C13.4998 13.2234 13.4803 13.3209 13.4426 13.4119C13.4049 13.5028 13.3497 13.5854 13.28 13.655Z" fill="#00385D"/>
</svg>
