<svg width="18" height="18" viewBox="0 0 18 18" fill="none" xmlns="http://www.w3.org/2000/svg">
<path d="M12.857 3.21411H1.929C1.4174 3.21411 0.926749 3.41734 0.564991 3.7791C0.203233 4.14086 0 4.63151 0 5.14311L0 16.0711C0 16.5827 0.203233 17.0734 0.564991 17.4351C0.926749 17.7969 1.4174 18.0001 1.929 18.0001H12.857C13.3686 18.0001 13.8593 17.7969 14.221 17.4351C14.5828 17.0734 14.786 16.5827 14.786 16.0711V5.14311C14.786 4.63151 14.5828 4.14086 14.221 3.7791C13.8593 3.41734 13.3686 3.21411 12.857 3.21411ZM13.5 16.0711C13.5 16.2416 13.4323 16.4052 13.3117 16.5258C13.1911 16.6464 13.0275 16.7141 12.857 16.7141H1.929C1.75847 16.7141 1.59492 16.6464 1.47433 16.5258C1.35374 16.4052 1.286 16.2416 1.286 16.0711V5.14311C1.286 4.97258 1.35374 4.80903 1.47433 4.68844C1.59492 4.56786 1.75847 4.50011 1.929 4.50011H12.857C13.0275 4.50011 13.1911 4.56786 13.3117 4.68844C13.4323 4.80903 13.5 4.97258 13.5 5.14311V16.0711Z" fill="#00385D"/>
<path d="M16.071 0H4.5C3.9884 0 3.49775 0.203233 3.13599 0.564991C2.77423 0.926749 2.571 1.4174 2.571 1.929C2.571 2.09953 2.63874 2.26308 2.75933 2.38367C2.87992 2.50426 3.04346 2.572 3.214 2.572C3.38453 2.572 3.54808 2.50426 3.66867 2.38367C3.78925 2.26308 3.857 2.09953 3.857 1.929C3.857 1.75847 3.92474 1.59492 4.04533 1.47433C4.16592 1.35374 4.32946 1.286 4.5 1.286H16.071C16.2415 1.286 16.4051 1.35374 16.5257 1.47433C16.6463 1.59492 16.714 1.75847 16.714 1.929V13.5C16.714 13.6705 16.6463 13.8341 16.5257 13.9547C16.4051 14.0753 16.2415 14.143 16.071 14.143C15.9005 14.143 15.7369 14.2107 15.6163 14.3313C15.4957 14.4519 15.428 14.6155 15.428 14.786C15.428 14.9565 15.4957 15.1201 15.6163 15.2407C15.7369 15.3613 15.9005 15.429 16.071 15.429C16.5826 15.429 17.0733 15.2258 17.435 14.864C17.7968 14.5023 18 14.0116 18 13.5V1.929C18 1.4174 17.7968 0.926749 17.435 0.564991C17.0733 0.203233 16.5826 0 16.071 0V0Z" fill="#00385D"/>
</svg>
