<svg width="18" height="18" viewBox="0 0 18 18" fill="none" xmlns="http://www.w3.org/2000/svg">
<path d="M9 18C7.21997 18 5.47991 17.4722 3.99987 16.4832C2.51983 15.4943 1.36628 14.0887 0.685088 12.4442C0.00389956 10.7996 -0.17433 8.99002 0.172937 7.24419C0.520204 5.49836 1.37737 3.89472 2.63604 2.63604C3.89472 1.37737 5.49836 0.520204 7.24419 0.172937C8.99002 -0.17433 10.7996 0.00389956 12.4442 0.685088C14.0887 1.36628 15.4943 2.51983 16.4832 3.99987C17.4722 5.47991 18 7.21997 18 9C17.9974 11.3861 17.0483 13.6738 15.3611 15.3611C13.6738 17.0483 11.3861 17.9974 9 18ZM9 1.125C7.44248 1.125 5.91993 1.58686 4.62489 2.45218C3.32985 3.3175 2.32049 4.5474 1.72445 5.98637C1.12841 7.42534 0.972461 9.00874 1.27632 10.5363C1.58018 12.0639 2.3302 13.4671 3.43154 14.5685C4.53288 15.6698 5.93607 16.4198 7.46367 16.7237C8.99127 17.0275 10.5747 16.8716 12.0136 16.2756C13.4526 15.6795 14.6825 14.6702 15.5478 13.3751C16.4131 12.0801 16.875 10.5575 16.875 9C16.8726 6.91216 16.0422 4.9105 14.5658 3.43417C13.0895 1.95784 11.0879 1.12739 9 1.125Z" fill="#00385D"/>
<path d="M8.15678 11.9996C8.08287 11.9999 8.00964 11.9855 7.94135 11.9572C7.87306 11.9289 7.81107 11.8874 7.75898 11.8349L5.32088 9.39774C5.21525 9.29176 5.15606 9.14816 5.15631 8.99854C5.15657 8.84891 5.21625 8.70551 5.32223 8.59989C5.42821 8.49427 5.57181 8.43507 5.72143 8.43533C5.87106 8.43558 6.01445 8.49526 6.12008 8.60124L8.16038 10.6415L12.6379 6.16404C12.6901 6.1118 12.7521 6.07036 12.8204 6.04209C12.8886 6.01382 12.9618 5.99927 13.0357 5.99927C13.1096 5.99927 13.1827 6.01382 13.251 6.04209C13.3192 6.07036 13.3812 6.1118 13.4335 6.16404C13.4857 6.21628 13.5272 6.2783 13.5554 6.34655C13.5837 6.41481 13.5983 6.48796 13.5983 6.56184C13.5983 6.63572 13.5837 6.70888 13.5554 6.77713C13.5272 6.84538 13.4857 6.9074 13.4335 6.95964L8.55548 11.8349C8.5031 11.8872 8.44093 11.9287 8.37251 11.957C8.3041 11.9852 8.23079 11.9997 8.15678 11.9996Z" fill="#00385D"/>
</svg>
