<svg width="18" height="18" viewBox="0 0 18 18" fill="none" xmlns="http://www.w3.org/2000/svg">
<path d="M0.571896 18C0.485043 18 0.399334 17.9802 0.32127 17.9421C0.243205 17.904 0.174836 17.8487 0.121346 17.7803C0.067857 17.7118 0.0306527 17.6321 0.0125552 17.5472C-0.00554227 17.4622 -0.00405767 17.3743 0.0168964 17.29L1.0919 12.977C1.11691 12.8764 1.16875 12.7844 1.2419 12.711L13.3419 0.610978C13.7356 0.217717 14.2694 -0.00317383 14.8259 -0.00317383C15.3824 -0.00317383 15.9161 0.217717 16.3099 0.610978L17.3889 1.68998C17.7822 2.08373 18.003 2.61748 18.003 3.17398C18.003 3.73048 17.7822 4.26423 17.3889 4.65798L5.2889 16.758C5.21555 16.8313 5.12357 16.8832 5.0229 16.908L0.709896 17.982C0.66489 17.994 0.618488 18.0001 0.571896 18ZM2.1629 13.407L1.3579 16.641L4.5929 15.835L16.5769 3.85098C16.7553 3.67182 16.8554 3.42929 16.8554 3.17648C16.8554 2.92366 16.7553 2.68114 16.5769 2.50198L15.4979 1.42298C15.3189 1.24436 15.0763 1.14405 14.8234 1.14405C14.5705 1.14405 14.3279 1.24436 14.1489 1.42298L2.1629 13.407Z" fill="#00385D"/>
<path d="M15.1195 6.69004C14.9692 6.68917 14.8254 6.62876 14.7195 6.52204L11.4765 3.28504C11.3742 3.1766 11.3182 3.03256 11.3204 2.8835C11.3225 2.73443 11.3827 2.59209 11.4881 2.48668C11.5936 2.38126 11.7359 2.32108 11.885 2.31891C12.034 2.31674 12.1781 2.37274 12.2865 2.47504L15.5245 5.71304C15.6047 5.79304 15.6594 5.89505 15.6815 6.00615C15.7037 6.11725 15.6924 6.23243 15.649 6.33708C15.6056 6.44173 15.5321 6.53114 15.4378 6.59398C15.3436 6.65682 15.2328 6.69025 15.1195 6.69004Z" fill="#00385D"/>
<path d="M4.88531 16.9249C4.735 16.924 4.59116 16.8636 4.48531 16.7569L1.24231 13.5189C1.18655 13.4663 1.14191 13.403 1.11104 13.3329C1.08016 13.2627 1.06368 13.187 1.06256 13.1104C1.06144 13.0338 1.07572 12.9577 1.10453 12.8866C1.13335 12.8156 1.17613 12.7511 1.23033 12.6969C1.28453 12.6427 1.34906 12.5999 1.42009 12.5711C1.49112 12.5423 1.56721 12.528 1.64385 12.5291C1.7205 12.5302 1.79614 12.5467 1.8663 12.5776C1.93646 12.6085 1.99971 12.6531 2.05231 12.7089L5.29031 15.9469C5.37038 16.027 5.42489 16.1291 5.44698 16.2402C5.46906 16.3513 5.45771 16.4664 5.41437 16.5711C5.37103 16.6758 5.29764 16.7652 5.20347 16.8282C5.10931 16.8912 4.99859 16.9248 4.88531 16.9249Z" fill="#00385D"/>
</svg>
