<svg width="18" height="12" viewBox="0 0 18 12" fill="none" xmlns="http://www.w3.org/2000/svg">
<path d="M16.312 12H1.687C1.23957 11.9995 0.81063 11.8214 0.494343 11.505C0.178055 11.1885 0.000264595 10.7594 0 10.312L0 1.687C0.0005293 1.23974 0.178436 0.810955 0.494695 0.494695C0.810955 0.178436 1.23974 0.0005293 1.687 0H16.312C16.7594 0.000264595 17.1885 0.178055 17.505 0.494343C17.8214 0.81063 17.9995 1.23957 18 1.687V10.312C17.9997 10.7596 17.8218 11.1888 17.5053 11.5053C17.1888 11.8218 16.7596 11.9997 16.312 12ZM1.687 1.125C1.53803 1.12526 1.39524 1.18456 1.2899 1.2899C1.18456 1.39524 1.12526 1.53803 1.125 1.687V10.312C1.12526 10.461 1.18456 10.6038 1.2899 10.7091C1.39524 10.8144 1.53803 10.8737 1.687 10.874H16.312C16.461 10.8737 16.6038 10.8144 16.7091 10.7091C16.8144 10.6038 16.8737 10.461 16.874 10.312V1.687C16.8737 1.53803 16.8144 1.39524 16.7091 1.2899C16.6038 1.18456 16.461 1.12526 16.312 1.125H1.687Z" fill="#00385D"/>
<path d="M9.00002 7.49981C8.66771 7.50003 8.3402 7.42046 8.04502 7.26781L0.300021 3.21981C0.167413 3.15085 0.0676284 3.03204 0.0226196 2.88952C-0.0223891 2.74699 -0.00893549 2.59242 0.0600208 2.45981C0.128977 2.3272 0.247788 2.22742 0.390315 2.18241C0.532843 2.1374 0.687413 2.15085 0.820021 2.21981L8.56002 6.26181C8.69595 6.33061 8.84617 6.36646 8.99852 6.36646C9.15087 6.36646 9.30109 6.33061 9.43702 6.26181L17.175 2.22081C17.3076 2.15172 17.4623 2.13814 17.6049 2.18306C17.6755 2.2053 17.741 2.24123 17.7978 2.2888C17.8545 2.33637 17.9013 2.39465 17.9355 2.46031C17.9697 2.52597 17.9907 2.59773 17.9972 2.67148C18.0036 2.74524 17.9955 2.81954 17.9733 2.89016C17.951 2.96078 17.9151 3.02633 17.8675 3.08306C17.82 3.13979 17.7617 3.1866 17.696 3.22081L9.95602 7.26281C9.66074 7.41673 9.333 7.49798 9.00002 7.49981Z" fill="#00385D"/>
</svg>
