<svg width="24" height="18" viewBox="0 0 24 18" fill="none" xmlns="http://www.w3.org/2000/svg">
<path d="M18 0H6C2.68629 0 0 2.68629 0 6V12C0 15.3137 2.68629 18 6 18H18C21.3137 18 24 15.3137 24 12V6C24 2.68629 21.3137 0 18 0Z" fill="white"/>
<path d="M6 0.5H18C21.0376 0.5 23.5 2.96243 23.5 6V12C23.5 15.0376 21.0376 17.5 18 17.5H6C2.96243 17.5 0.5 15.0376 0.5 12V6C0.5 2.96243 2.96243 0.5 6 0.5Z" stroke="#00385D" stroke-opacity="0.1"/>
<path opacity="0.3" d="M16.1784 5.32007H12.8354V6.99107H16.1784V9.49807H9.49339L10.7504 8.24507L9.49339 6.99107L6.15039 10.3341L9.49339 13.6771L10.7504 12.4201L9.49339 11.1701H16.1794C16.6226 11.1695 17.0474 10.9932 17.3607 10.6797C17.674 10.3662 17.8501 9.94126 17.8504 9.49807V6.99107C17.8499 6.54788 17.6735 6.12301 17.36 5.80972C17.0466 5.49644 16.6216 5.32033 16.1784 5.32007Z" fill="#00385D"/>
</svg>
