<svg width="16" height="16" viewBox="0 0 16 16" fill="none" xmlns="http://www.w3.org/2000/svg">
<path fill-rule="evenodd" clip-rule="evenodd" d="M13.6597 13.6595C14.9729 12.3496 15.7911 10.6248 15.9749 8.77913C16.1587 6.93346 15.6967 5.08116 14.6677 3.538C13.6386 1.99484 12.1062 0.856344 10.3316 0.316596C8.55711 -0.223151 6.6503 -0.13074 4.93627 0.578076C3.22224 1.28689 1.80711 2.56824 0.932092 4.20367C0.0570776 5.83911 -0.223643 7.72741 0.137784 9.54666C0.499211 11.3659 1.48041 13.0035 2.91412 14.1803C4.34783 15.357 6.1453 16.0001 8.0001 16C9.0511 16.0017 10.0921 15.7959 11.0633 15.3942C12.0346 14.9926 12.9169 14.4031 13.6597 13.6595ZM9.08188 11.0817C9.08165 10.9399 9.05348 10.7995 8.99899 10.6686C8.9445 10.5376 8.86475 10.4187 8.7643 10.3186C8.66385 10.2185 8.54466 10.1391 8.41354 10.085C8.28242 10.031 8.14193 10.0033 8.0001 10.0035C7.71129 10.0023 7.43375 10.1156 7.2282 10.3184C7.02264 10.5213 6.9058 10.7974 6.90321 11.0862C6.90531 11.3764 7.02154 11.6542 7.2268 11.8595C7.43205 12.0647 7.70984 12.181 8.0001 12.1831C8.28891 12.1805 8.56494 12.0636 8.76783 11.8581C8.97072 11.6525 9.08396 11.375 9.08277 11.0862L9.08188 11.0817ZM8.0001 8.90662C7.80904 8.89879 7.62787 8.81957 7.49242 8.6846C7.35696 8.54964 7.27707 8.36876 7.26855 8.17773L6.90321 4.91373C6.90779 4.62424 7.02483 4.3479 7.22955 4.14318C7.43427 3.93846 7.71062 3.82142 8.0001 3.81684C8.28898 3.81919 8.56515 3.93596 8.76809 4.14157C8.97103 4.34717 9.08419 4.62484 9.08277 4.91373L8.73166 8.17773C8.72314 8.36876 8.64325 8.54964 8.50779 8.6846C8.37233 8.81957 8.19116 8.89879 8.0001 8.90662Z" fill="#FF5364"/>
</svg>
