<svg width="18" height="18" viewBox="0 0 18 18" fill="none" xmlns="http://www.w3.org/2000/svg">
<path d="M17.634 7.41389C17.611 7.30578 17.5546 7.20764 17.4727 7.13335C17.3909 7.05905 17.2878 7.01236 17.178 6.99989L13.965 6.62789L16.135 2.94689C16.1946 2.84621 16.219 2.72855 16.2044 2.61245C16.1898 2.49635 16.1369 2.38842 16.0542 2.30568C15.9714 2.22294 15.8635 2.17008 15.7474 2.15546C15.6313 2.14083 15.5136 2.16526 15.413 2.22489L11.773 4.36989L11.522 0.492892C11.5147 0.378055 11.4701 0.268741 11.3949 0.181642C11.3197 0.0945443 11.2181 0.0344488 11.1055 0.0105329C10.993 -0.013383 10.8757 0.000194989 10.7716 0.0491935C10.6675 0.0981921 10.5823 0.179918 10.529 0.281892L8.49995 4.15089L6.22895 2.00689C6.1519 1.93397 6.05464 1.886 5.94989 1.86926C5.84513 1.85251 5.73776 1.86778 5.64182 1.91304C5.54588 1.95831 5.46583 2.03148 5.41215 2.12299C5.35847 2.21449 5.33366 2.32006 5.34095 2.42589L5.56895 5.80589L1.52895 5.31089C1.41848 5.29712 1.30649 5.31869 1.20903 5.3725C1.11157 5.42632 1.03366 5.50961 0.986467 5.61044C0.939273 5.71127 0.925222 5.82445 0.946328 5.93376C0.967434 6.04307 1.02261 6.14288 1.10395 6.21889L3.86295 8.80889L0.619954 10.6689C0.523029 10.7241 0.446133 10.8087 0.400336 10.9104C0.354539 11.0121 0.342205 11.1258 0.365109 11.235C0.388012 11.3441 0.444973 11.4432 0.527788 11.518C0.610604 11.5927 0.715003 11.6393 0.825954 11.6509L4.12595 12.0079L1.95395 15.6829C1.89432 15.7836 1.86989 15.9012 1.88452 16.0173C1.89915 16.1334 1.952 16.2414 2.03474 16.3241C2.11748 16.4068 2.22541 16.4597 2.34151 16.4743C2.45761 16.489 2.57527 16.4645 2.67595 16.4049L6.35095 14.2379L6.70895 17.5299C6.72058 17.6408 6.76712 17.7452 6.84186 17.8281C6.91661 17.9109 7.0157 17.9678 7.12489 17.9907C7.23407 18.0136 7.3477 18.0013 7.44943 17.9555C7.55115 17.9097 7.63572 17.8328 7.69095 17.7359L9.54995 14.4999L12.141 17.2589C12.2192 17.3396 12.3212 17.3932 12.4321 17.4119C12.5429 17.4306 12.6569 17.4134 12.7573 17.3628C12.8577 17.3123 12.9394 17.231 12.9904 17.1308C13.0414 17.0307 13.0591 16.9168 13.041 16.8059L12.554 12.8299L16.554 13.3199C16.6644 13.3337 16.7764 13.3121 16.8739 13.2583C16.9713 13.2045 17.0492 13.1212 17.0964 13.0203C17.1436 12.9195 17.1577 12.8063 17.1366 12.697C17.1155 12.5877 17.0603 12.4879 16.979 12.4119L14.224 9.81589L17.382 7.97789C17.4777 7.9221 17.5534 7.83762 17.5985 7.7364C17.6435 7.63518 17.6556 7.52235 17.633 7.41389H17.634Z" fill="#00385D"/>
</svg>
