<svg width="16" height="16" viewBox="0 0 16 16" fill="none" xmlns="http://www.w3.org/2000/svg">
<path fill-rule="evenodd" clip-rule="evenodd" d="M15.9998 8.18177C15.9998 7.6145 15.9479 7.06905 15.8514 6.54541H8.16309V9.63996H12.5564C12.3672 10.64 11.792 11.4872 10.9275 12.0545V14.0618H13.5657C15.1093 12.669 15.9998 10.6181 15.9998 8.18177Z" fill="#4285F4"/>
<path fill-rule="evenodd" clip-rule="evenodd" d="M8.16316 16C10.3672 16 12.2151 15.2837 13.5658 14.0618L10.9275 12.0546C10.1966 12.5346 9.26149 12.8182 8.16316 12.8182C6.037 12.8182 4.23737 11.4109 3.59544 9.52002H0.868164V11.5927C2.21139 14.2073 4.97206 16 8.16316 16Z" fill="#34A853"/>
<path fill-rule="evenodd" clip-rule="evenodd" d="M3.59555 9.51995C3.43229 9.03995 3.33952 8.52723 3.33952 7.99995C3.33952 7.47268 3.43229 6.95995 3.59555 6.47995V4.40723H0.868275C0.315399 5.48723 0 6.70904 0 7.99995C0 9.29086 0.315399 10.5127 0.868275 11.5927L3.59555 9.51995Z" fill="#FBBC05"/>
<path fill-rule="evenodd" clip-rule="evenodd" d="M8.16316 3.18182C9.36168 3.18182 10.4377 3.58545 11.2838 4.37818L13.6251 2.08364C12.2114 0.792727 10.3635 0 8.16316 0C4.97206 0 2.21139 1.79273 0.868164 4.40727L3.59544 6.48C4.23737 4.58909 6.037 3.18182 8.16316 3.18182Z" fill="#EA4335"/>
</svg>
