<svg width="16" height="18" viewBox="0 0 16 18" fill="none" xmlns="http://www.w3.org/2000/svg">
<path d="M15.607 2.26594L8.107 0.0159391C8.03686 -0.0049875 7.96214 -0.0049875 7.892 0.0159391L0.392 2.26594C0.314746 2.28901 0.247014 2.33642 0.1989 2.40111C0.150785 2.46581 0.124864 2.54431 0.125001 2.62494V10.8749C0.125001 14.1919 5.181 17.1409 7.889 17.9829C7.96137 18.0049 8.03863 18.0049 8.111 17.9829C10.818 17.1409 15.875 14.1909 15.875 10.8739V2.62494C15.8748 2.54427 15.8486 2.46581 15.8003 2.40117C15.752 2.33652 15.6843 2.28911 15.607 2.26594ZM15.124 8.12094L8.107 6.01594C8.03653 5.99493 7.96147 5.99493 7.891 6.01594L0.874 8.12094V5.89994L8 3.76694L15.124 5.89994V8.12094Z" fill="#00385D"/>
</svg>
