<svg width="18" height="18" viewBox="0 0 18 18" fill="none" xmlns="http://www.w3.org/2000/svg">
<mask id="path-1-outside-1_57_5136" x="0.650391" y="-0.850098" width="16" height="19" fill="black">
<rect fill="white" x="0.650391" y="-0.850098" width="16" height="19"/>
<path fill-rule="evenodd" clip-rule="evenodd" d="M8.90691 17.8375C8.93741 17.8457 8.96883 17.8498 9.00039 17.8499C9.03186 17.85 9.06324 17.8465 9.09388 17.8393C9.16708 17.8198 16.3504 15.8453 16.3504 9.13247V3.10019C16.3505 3.02469 16.3274 2.95101 16.2843 2.88911C16.2413 2.82721 16.1803 2.7801 16.1096 2.75415L9.12739 0.172547C9.0454 0.142354 8.95539 0.142354 8.87339 0.172547L1.89116 2.75326C1.82051 2.77921 1.75953 2.82633 1.71646 2.88822C1.67339 2.95012 1.65033 3.02381 1.65039 3.0993V9.13159C1.65039 15.8436 8.83371 17.8189 8.90691 17.8375ZM2.38592 9.13159V3.35684L9.00039 0.912422L15.6149 3.35684V9.13159C15.6149 14.9435 9.84528 16.8489 9.00039 17.0967C8.1555 16.8507 2.38592 14.9444 2.38592 9.13159ZM8.85488 13.0249C8.90035 13.0448 8.94937 13.0553 8.99898 13.0557C9.04853 13.0554 9.09751 13.0451 9.14298 13.0253C9.18844 13.0055 9.22946 12.9768 9.26356 12.9407L12.7137 9.2652C13.1585 8.77803 13.4052 8.14129 13.4052 7.48056C13.4052 6.81983 13.1585 6.18309 12.7137 5.69592C12.4969 5.45924 12.2335 5.2703 11.9403 5.14105C11.647 5.0118 11.3301 4.94507 11.0098 4.94507C10.6895 4.94507 10.3726 5.0118 10.0793 5.14105C9.78602 5.2703 9.52265 5.45924 9.30589 5.69592L8.99898 6.02338L8.69207 5.69592C8.47115 5.46638 8.20642 5.28382 7.91369 5.15914C7.62095 5.03446 7.3062 4.97021 6.98818 4.97021C6.67017 4.97021 6.35542 5.03446 6.06268 5.15914C5.76995 5.28382 5.50522 5.46638 5.2843 5.69592C4.8395 6.18309 4.59277 6.81983 4.59277 7.48056C4.59277 8.14129 4.8395 8.77803 5.2843 9.2652L8.7344 12.9398C8.76843 12.976 8.80941 13.005 8.85488 13.0249ZM6.3523 5.81855C6.55259 5.72932 6.76905 5.68245 6.98818 5.68087C7.20773 5.68182 7.4247 5.72829 7.62549 5.81739C7.82628 5.90649 8.00655 6.03627 8.15498 6.19861L8.72999 6.81193C8.80111 6.88326 8.89755 6.92334 8.9981 6.92334C9.09866 6.92334 9.19509 6.88326 9.26621 6.81193L9.84123 6.19861C9.98927 6.03526 10.1697 5.90475 10.3709 5.81544C10.5721 5.72613 10.7898 5.68 11.0098 5.68C11.2298 5.68 11.4474 5.72613 11.6487 5.81544C11.8499 5.90475 12.0303 6.03526 12.1783 6.19861C12.4975 6.54766 12.6746 7.00417 12.6746 7.4779C12.6746 7.95164 12.4975 8.40814 12.1783 8.7572L8.99898 12.1495L5.82404 8.75808C5.50486 8.40903 5.32778 7.95252 5.32778 7.47879C5.32778 7.00505 5.50486 6.54855 5.82404 6.19949C5.97218 6.03745 6.15201 5.90777 6.3523 5.81855Z"/>
</mask>
<path fill-rule="evenodd" clip-rule="evenodd" d="M8.90691 17.8375C8.93741 17.8457 8.96883 17.8498 9.00039 17.8499C9.03186 17.85 9.06324 17.8465 9.09388 17.8393C9.16708 17.8198 16.3504 15.8453 16.3504 9.13247V3.10019C16.3505 3.02469 16.3274 2.95101 16.2843 2.88911C16.2413 2.82721 16.1803 2.7801 16.1096 2.75415L9.12739 0.172547C9.0454 0.142354 8.95539 0.142354 8.87339 0.172547L1.89116 2.75326C1.82051 2.77921 1.75953 2.82633 1.71646 2.88822C1.67339 2.95012 1.65033 3.02381 1.65039 3.0993V9.13159C1.65039 15.8436 8.83371 17.8189 8.90691 17.8375ZM2.38592 9.13159V3.35684L9.00039 0.912422L15.6149 3.35684V9.13159C15.6149 14.9435 9.84528 16.8489 9.00039 17.0967C8.1555 16.8507 2.38592 14.9444 2.38592 9.13159ZM8.85488 13.0249C8.90035 13.0448 8.94937 13.0553 8.99898 13.0557C9.04853 13.0554 9.09751 13.0451 9.14298 13.0253C9.18844 13.0055 9.22946 12.9768 9.26356 12.9407L12.7137 9.2652C13.1585 8.77803 13.4052 8.14129 13.4052 7.48056C13.4052 6.81983 13.1585 6.18309 12.7137 5.69592C12.4969 5.45924 12.2335 5.2703 11.9403 5.14105C11.647 5.0118 11.3301 4.94507 11.0098 4.94507C10.6895 4.94507 10.3726 5.0118 10.0793 5.14105C9.78602 5.2703 9.52265 5.45924 9.30589 5.69592L8.99898 6.02338L8.69207 5.69592C8.47115 5.46638 8.20642 5.28382 7.91369 5.15914C7.62095 5.03446 7.3062 4.97021 6.98818 4.97021C6.67017 4.97021 6.35542 5.03446 6.06268 5.15914C5.76995 5.28382 5.50522 5.46638 5.2843 5.69592C4.8395 6.18309 4.59277 6.81983 4.59277 7.48056C4.59277 8.14129 4.8395 8.77803 5.2843 9.2652L8.7344 12.9398C8.76843 12.976 8.80941 13.005 8.85488 13.0249ZM6.3523 5.81855C6.55259 5.72932 6.76905 5.68245 6.98818 5.68087C7.20773 5.68182 7.4247 5.72829 7.62549 5.81739C7.82628 5.90649 8.00655 6.03627 8.15498 6.19861L8.72999 6.81193C8.80111 6.88326 8.89755 6.92334 8.9981 6.92334C9.09866 6.92334 9.19509 6.88326 9.26621 6.81193L9.84123 6.19861C9.98927 6.03526 10.1697 5.90475 10.3709 5.81544C10.5721 5.72613 10.7898 5.68 11.0098 5.68C11.2298 5.68 11.4474 5.72613 11.6487 5.81544C11.8499 5.90475 12.0303 6.03526 12.1783 6.19861C12.4975 6.54766 12.6746 7.00417 12.6746 7.4779C12.6746 7.95164 12.4975 8.40814 12.1783 8.7572L8.99898 12.1495L5.82404 8.75808C5.50486 8.40903 5.32778 7.95252 5.32778 7.47879C5.32778 7.00505 5.50486 6.54855 5.82404 6.19949C5.97218 6.03745 6.15201 5.90777 6.3523 5.81855Z" fill="#00385D"/>
<path d="M9.00039 17.8499L9.00111 17.6999H9.00071L9.00039 17.8499ZM8.90691 17.8375L8.94568 17.6926L8.94382 17.6921L8.90691 17.8375ZM9.09388 17.8393L9.12823 17.9854L9.13243 17.9842L9.09388 17.8393ZM16.3504 3.10019L16.2004 3.10006V3.10019H16.3504ZM16.2843 2.88911L16.1612 2.97478L16.1612 2.97478L16.2843 2.88911ZM16.1096 2.75415L16.0576 2.89484L16.0579 2.89495L16.1096 2.75415ZM9.12739 0.172547L9.17941 0.0318559L9.17922 0.0317878L9.12739 0.172547ZM8.87339 0.172547L8.82156 0.0317877L8.82139 0.0318502L8.87339 0.172547ZM1.89116 2.75326L1.94288 2.89406L1.94316 2.89396L1.89116 2.75326ZM1.71646 2.88822L1.59333 2.80255L1.59333 2.80256L1.71646 2.88822ZM1.65039 3.0993H1.80039L1.80039 3.09918L1.65039 3.0993ZM2.38592 3.35684L2.33392 3.21614L2.23592 3.25236V3.35684H2.38592ZM9.00039 0.912422L9.05239 0.771723L9.00039 0.752507L8.94839 0.771723L9.00039 0.912422ZM15.6149 3.35684H15.7649V3.25236L15.6669 3.21614L15.6149 3.35684ZM9.00039 17.0967L8.95845 17.2408L9.00054 17.253L9.04261 17.2407L9.00039 17.0967ZM8.99898 13.0557L8.99773 13.2057L8.9999 13.2057L8.99898 13.0557ZM8.85488 13.0249L8.91509 12.8875L8.91509 12.8875L8.85488 13.0249ZM9.26356 12.9407L9.37257 13.0437L9.37293 13.0433L9.26356 12.9407ZM12.7137 9.2652L12.823 9.36787L12.8244 9.36634L12.7137 9.2652ZM12.7137 5.69592L12.8244 5.59478L12.8243 5.59461L12.7137 5.69592ZM9.30589 5.69592L9.41535 5.7985L9.41651 5.79723L9.30589 5.69592ZM8.99898 6.02338L8.88954 6.12595L8.99898 6.24272L9.10843 6.12595L8.99898 6.02338ZM8.69207 5.69592L8.80153 5.59333L8.80015 5.5919L8.69207 5.69592ZM7.91369 5.15914L7.97247 5.02114L7.91369 5.15914ZM6.06268 5.15914L6.0039 5.02114L6.06268 5.15914ZM5.2843 5.69592L5.17618 5.59186L5.17352 5.59478L5.2843 5.69592ZM5.2843 9.2652L5.17351 9.36635L5.17494 9.36787L5.2843 9.2652ZM8.7344 12.9398L8.62505 13.0425L8.62506 13.0425L8.7344 12.9398ZM6.98818 5.68087L6.98883 5.53086L6.9871 5.53088L6.98818 5.68087ZM7.62549 5.81739L7.56465 5.9545L7.62549 5.81739ZM8.15498 6.19861L8.04427 6.29983L8.04555 6.3012L8.15498 6.19861ZM8.72999 6.81193L8.62052 6.91457L8.62376 6.91783L8.72999 6.81193ZM9.26621 6.81193L9.37249 6.91788L9.37564 6.91452L9.26621 6.81193ZM9.84123 6.19861L9.95067 6.30122L9.95237 6.29934L9.84123 6.19861ZM10.3709 5.81544L10.4318 5.95254V5.95254L10.3709 5.81544ZM11.6487 5.81544L11.5878 5.95254V5.95254L11.6487 5.81544ZM12.1783 6.19861L12.0672 6.29934L12.0676 6.29983L12.1783 6.19861ZM12.1783 8.7572L12.2878 8.85978L12.289 8.85842L12.1783 8.7572ZM8.99898 12.1495L8.88948 12.252L8.99892 12.3689L9.10843 12.252L8.99898 12.1495ZM5.82404 8.75808L5.71333 8.85931L5.71453 8.8606L5.82404 8.75808ZM5.82404 6.19949L5.93474 6.30072L5.93474 6.30071L5.82404 6.19949ZM9.00071 17.6999C8.98213 17.6999 8.96363 17.6974 8.94567 17.6926L8.86814 17.9824C8.91118 17.9939 8.95553 17.9998 9.00007 17.9999L9.00071 17.6999ZM9.05953 17.6933C9.04039 17.6978 9.02078 17.7 9.00111 17.6999L8.99967 17.9999C9.04294 18.0001 9.08609 17.9952 9.12822 17.9853L9.05953 17.6933ZM16.2004 9.13247C16.2004 12.4265 14.4409 14.5582 12.6604 15.8753C11.7696 16.5342 10.8757 16.9872 10.1995 17.2767C9.86168 17.4214 9.57875 17.525 9.37854 17.5928C9.27844 17.6268 9.19908 17.6518 9.14391 17.6685C9.11633 17.6769 9.09481 17.6831 9.0798 17.6874C9.07229 17.6896 9.06642 17.6913 9.06224 17.6924C9.06015 17.693 9.0585 17.6935 9.0573 17.6938C9.0567 17.6939 9.05622 17.6941 9.05587 17.6942C9.05569 17.6942 9.05559 17.6942 9.05546 17.6943C9.05535 17.6943 9.05536 17.6943 9.05532 17.6943L9.13243 17.9842C9.17767 17.9722 11.0123 17.4676 12.8388 16.1165C14.6682 14.7632 16.5004 12.5513 16.5004 9.13247H16.2004ZM16.2004 3.10019V9.13247H16.5004V3.10019H16.2004ZM16.1612 2.97478C16.1867 3.01147 16.2004 3.05521 16.2004 3.10006L16.5004 3.10031C16.5005 2.99418 16.4681 2.89055 16.4075 2.80344L16.1612 2.97478ZM16.0579 2.89495C16.0996 2.91026 16.1357 2.9381 16.1612 2.97478L16.4075 2.80344C16.3468 2.71633 16.2609 2.64993 16.1613 2.61334L16.0579 2.89495ZM9.07537 0.313239L16.0576 2.89484L16.1616 2.61345L9.17941 0.031856L9.07537 0.313239ZM8.92523 0.313307C8.97376 0.295434 9.02702 0.295434 9.07555 0.313307L9.17922 0.0317878C9.06377 -0.0107261 8.93701 -0.0107261 8.82156 0.0317878L8.92523 0.313307ZM1.94316 2.89396L8.9254 0.313244L8.82139 0.0318502L1.83915 2.61256L1.94316 2.89396ZM1.83959 2.97389C1.86511 2.93721 1.90119 2.90937 1.94288 2.89406L1.83944 2.61246C1.73984 2.64905 1.65394 2.71544 1.59333 2.80255L1.83959 2.97389ZM1.80039 3.09918C1.80035 3.05432 1.81406 3.01058 1.83959 2.97389L1.59333 2.80256C1.53272 2.88966 1.5003 2.9933 1.50039 3.09943L1.80039 3.09918ZM1.80039 9.13159V3.0993H1.50039V9.13159H1.80039ZM8.94382 17.6921C8.94382 17.6921 8.93641 17.6902 8.92078 17.6857C8.90582 17.6814 8.88434 17.6752 8.85677 17.6668C8.80164 17.6502 8.72229 17.6252 8.62221 17.5913C8.42201 17.5235 8.13909 17.42 7.80122 17.2753C7.12509 16.9859 6.23117 16.5329 5.3404 15.874C3.55989 14.5569 1.80039 12.4251 1.80039 9.13159H1.50039C1.50039 12.55 3.33255 14.7619 5.16199 16.1152C6.98829 17.4661 8.82282 17.9709 8.86999 17.9829L8.94382 17.6921ZM2.23592 3.35684V9.13159H2.53592V3.35684H2.23592ZM8.94839 0.771723L2.33392 3.21614L2.43792 3.49754L9.05239 1.05312L8.94839 0.771723ZM15.6669 3.21614L9.05239 0.771723L8.94839 1.05312L15.5629 3.49754L15.6669 3.21614ZM15.7649 9.13159V3.35684H15.4649V9.13159H15.7649ZM9.04261 17.2407C9.47343 17.1143 11.1482 16.5692 12.718 15.318C14.2912 14.0641 15.7649 12.0951 15.7649 9.13159H15.4649C15.4649 11.98 14.0538 13.8697 12.531 15.0834C11.0047 16.2999 9.37224 16.8314 8.95817 16.9528L9.04261 17.2407ZM2.23592 9.13159C2.23592 12.0956 3.7096 14.065 5.28282 15.319C6.85261 16.5703 8.52734 17.1152 8.95845 17.2408L9.04233 16.9527C8.62855 16.8322 6.99605 16.301 5.46982 15.0844C3.94703 13.8706 2.53592 11.9804 2.53592 9.13159H2.23592ZM9.00024 12.9057C8.97094 12.9055 8.94197 12.8993 8.91509 12.8875L8.79468 13.1623C8.85873 13.1904 8.9278 13.2051 8.99773 13.2057L9.00024 12.9057ZM9.08316 12.8878C9.05628 12.8994 9.02734 12.9056 8.99807 12.9057L8.9999 13.2057C9.06973 13.2053 9.13875 13.1907 9.20279 13.1629L9.08316 12.8878ZM9.15456 12.8376C9.13434 12.859 9.11005 12.8761 9.08316 12.8878L9.20279 13.1629C9.26684 13.135 9.32458 13.0945 9.37257 13.0437L9.15456 12.8376ZM12.6043 9.16254L9.1542 12.838L9.37293 13.0433L12.823 9.36786L12.6043 9.16254ZM13.2552 7.48056C13.2552 8.10393 13.0224 8.70458 12.6029 9.16406L12.8244 9.36634C13.2945 8.85148 13.5552 8.17865 13.5552 7.48056H13.2552ZM12.6029 5.79706C13.0224 6.25654 13.2552 6.85719 13.2552 7.48056H13.5552C13.5552 6.78247 13.2945 6.10964 12.8244 5.59478L12.6029 5.79706ZM11.8798 5.27831C12.154 5.39917 12.4003 5.57586 12.6031 5.79723L12.8243 5.59461C12.5935 5.34262 12.3131 5.14143 12.0007 5.00379L11.8798 5.27831ZM11.0098 5.09507C11.3093 5.09507 11.6055 5.15746 11.8798 5.27831L12.0007 5.00379C11.6884 4.86615 11.351 4.79507 11.0098 4.79507V5.09507ZM10.1398 5.27831C10.4141 5.15746 10.7103 5.09507 11.0098 5.09507V4.79507C10.6686 4.79507 10.3312 4.86615 10.0188 5.00379L10.1398 5.27831ZM9.41651 5.79723C9.61925 5.57586 9.86555 5.39917 10.1398 5.27831L10.0188 5.00379C9.70648 5.14143 9.42606 5.34262 9.19528 5.59461L9.41651 5.79723ZM9.10843 6.12595L9.41534 5.7985L9.19645 5.59334L8.88954 5.9208L9.10843 6.12595ZM8.58263 5.7985L8.88954 6.12595L9.10843 5.9208L8.80152 5.59334L8.58263 5.7985ZM7.85491 5.29715C8.12907 5.41392 8.37703 5.5849 8.584 5.79994L8.80015 5.5919C8.56526 5.34785 8.28377 5.15373 7.97247 5.02114L7.85491 5.29715ZM6.98818 5.12021C7.28598 5.12021 7.58075 5.18038 7.85491 5.29715L7.97247 5.02114C7.66115 4.88855 7.32641 4.82021 6.98818 4.82021V5.12021ZM6.12146 5.29715C6.39562 5.18038 6.69038 5.12021 6.98818 5.12021V4.82021C6.64996 4.82021 6.31521 4.88855 6.0039 5.02114L6.12146 5.29715ZM5.39237 5.79994C5.59934 5.5849 5.8473 5.41392 6.12146 5.29715L6.0039 5.02114C5.69259 5.15373 5.41111 5.34785 5.17622 5.5919L5.39237 5.79994ZM4.74277 7.48056C4.74277 6.85719 4.97556 6.25654 5.39507 5.79706L5.17352 5.59478C4.70345 6.10964 4.44277 6.78247 4.44277 7.48056H4.74277ZM5.39507 9.16406C4.97556 8.70458 4.74277 8.10393 4.74277 7.48056H4.44277C4.44277 8.17865 4.70345 8.85148 5.17352 9.36634L5.39507 9.16406ZM8.84376 12.8371L5.39365 9.16252L5.17494 9.36787L8.62505 13.0425L8.84376 12.8371ZM8.91509 12.8875C8.8882 12.8757 8.86393 12.8586 8.84375 12.8371L8.62506 13.0425C8.67294 13.0935 8.73063 13.1342 8.79468 13.1623L8.91509 12.8875ZM6.9871 5.53088C6.74729 5.53261 6.51042 5.58389 6.29126 5.68153L6.41334 5.95556C6.59476 5.87474 6.79081 5.8323 6.98926 5.83087L6.9871 5.53088ZM7.68633 5.68028C7.46659 5.58278 7.22912 5.53191 6.98883 5.53087L6.98754 5.83087C7.18633 5.83173 7.38281 5.87381 7.56465 5.9545L7.68633 5.68028ZM8.26568 6.09739C8.1033 5.9198 7.90607 5.77778 7.68633 5.68028L7.56465 5.9545C7.7465 6.03519 7.9098 6.15275 8.04428 6.29983L8.26568 6.09739ZM8.83942 6.70933L8.26441 6.09601L8.04555 6.3012L8.62057 6.91452L8.83942 6.70933ZM8.9981 6.77334C8.93749 6.77334 8.87925 6.74919 8.83623 6.70603L8.62376 6.91783C8.72297 7.01734 8.8576 7.07334 8.9981 7.07334V6.77334ZM9.15998 6.70603C9.11695 6.74919 9.05871 6.77334 8.9981 6.77334V7.07334C9.1386 7.07334 9.27324 7.01734 9.37244 6.91783L9.15998 6.70603ZM9.7318 6.09601L9.15678 6.70933L9.37564 6.91452L9.95065 6.3012L9.7318 6.09601ZM10.3101 5.67833C10.0897 5.77614 9.89215 5.91905 9.73008 6.09788L9.95237 6.29934C10.0864 6.15146 10.2497 6.03335 10.4318 5.95254L10.3101 5.67833ZM11.0098 5.53C10.7688 5.53 10.5304 5.58053 10.3101 5.67833L10.4318 5.95254C10.6138 5.87173 10.8107 5.83 11.0098 5.83V5.53ZM11.7095 5.67833C11.4891 5.58053 11.2508 5.53 11.0098 5.53V5.83C11.2088 5.83 11.4057 5.87173 11.5878 5.95254L11.7095 5.67833ZM12.2895 6.09788C12.1274 5.91905 11.9299 5.77614 11.7095 5.67833L11.5878 5.95254C11.7699 6.03335 11.9332 6.15146 12.0672 6.29934L12.2895 6.09788ZM12.8246 7.4779C12.8246 6.96677 12.6335 6.47414 12.289 6.09739L12.0676 6.29983C12.3615 6.62119 12.5246 7.04156 12.5246 7.4779H12.8246ZM12.289 8.85842C12.6335 8.48167 12.8246 7.98904 12.8246 7.4779H12.5246C12.5246 7.91424 12.3615 8.33462 12.0676 8.65597L12.289 8.85842ZM9.10843 12.252L12.2878 8.85977L12.0689 8.65462L8.88954 12.0469L9.10843 12.252ZM5.71453 8.8606L8.88948 12.252L9.10849 12.047L5.93354 8.65557L5.71453 8.8606ZM5.17778 7.47879C5.17778 7.98992 5.36884 8.48255 5.71334 8.8593L5.93474 8.65686C5.64089 8.3355 5.47778 7.91513 5.47778 7.47879H5.17778ZM5.71334 6.09827C5.36884 6.47502 5.17778 6.96765 5.17778 7.47879H5.47778C5.47778 7.04245 5.64089 6.62207 5.93474 6.30072L5.71334 6.09827ZM6.29126 5.68153C6.0721 5.77916 5.87538 5.92104 5.71333 6.09828L5.93474 6.30071C6.06899 6.15387 6.23192 6.03639 6.41334 5.95556L6.29126 5.68153Z" fill="#00385D" mask="url(#path-1-outside-1_57_5136)"/>
</svg>
