<svg width="18" height="16" viewBox="0 0 18 16" fill="none" xmlns="http://www.w3.org/2000/svg">
<path d="M17.2776 7.24135H2.29288L8.03143 1.79188C8.17577 1.65483 8.25958 1.46622 8.26444 1.26756C8.2693 1.06889 8.19481 0.876441 8.05734 0.732538C7.91988 0.588634 7.73071 0.505069 7.53145 0.500223C7.33219 0.495378 7.13915 0.56965 6.99482 0.706701L0.441631 6.93018C0.300516 7.07042 0.188798 7.23725 0.112983 7.42095C0.0371679 7.60465 -0.00122841 7.80156 2.99577e-05 8.00021C0.00128832 8.19885 0.0421764 8.39526 0.120313 8.57799C0.198449 8.76073 0.312271 8.92614 0.455152 9.06458L6.99031 15.2757C7.06092 15.3474 7.14527 15.4042 7.23835 15.4427C7.33142 15.4813 7.43132 15.5007 7.53209 15.5C7.63287 15.4992 7.73246 15.4783 7.82496 15.4384C7.91745 15.3985 8.00095 15.3405 8.07049 15.2677C8.14003 15.195 8.19419 15.1091 8.22974 15.0151C8.2653 14.9211 8.28153 14.8209 8.27747 14.7205C8.2734 14.6201 8.24913 14.5215 8.20609 14.4307C8.16304 14.3398 8.10211 14.2586 8.02692 14.1917L2.26922 8.73881H17.2776C17.4717 8.73131 17.6554 8.64914 17.7901 8.50955C17.9248 8.36996 18 8.18378 18 7.99008C18 7.79638 17.9248 7.6102 17.7901 7.47061C17.6554 7.33102 17.4717 7.24885 17.2776 7.24135Z" fill="#00385D"/>
</svg>
