<svg width="18" height="16" viewBox="0 0 18 16" fill="none" xmlns="http://www.w3.org/2000/svg">
<path d="M17.7525 0.197631C17.5984 0.0926845 17.4004 0.0701154 17.2283 0.141208L11.8125 2.31349L6.40688 0.144593C6.40688 0.144593 6.40687 0.144593 6.40575 0.144593L6.39675 0.141208C6.26288 0.0870423 6.11325 0.0870423 5.97937 0.141208L5.96925 0.144593C5.96925 0.144593 5.96925 0.144593 5.96812 0.144593L0.35325 2.39812C0.140625 2.48388 0 2.69039 0 2.92172V15.3347C0 15.5221 0.093375 15.697 0.2475 15.8019C0.342 15.8662 0.451125 15.899 0.5625 15.899C0.633375 15.899 0.70425 15.8854 0.77175 15.8583L6.1875 13.6861L11.5931 15.855C11.5931 15.855 11.5931 15.855 11.5942 15.855L11.6044 15.8595C11.7382 15.9136 11.8879 15.9136 12.0217 15.8595L12.0319 15.855C12.0319 15.855 12.0319 15.855 12.033 15.855L17.6479 13.6026C17.8594 13.5157 18 13.3092 18 13.0778V0.664812C18 0.477488 17.9066 0.302577 17.7525 0.197631ZM5.625 12.6953L1.125 14.5008V3.30314L5.625 1.49761V12.6953ZM11.25 14.5019L6.75 12.6964V1.49874L11.25 3.30427V14.5019ZM16.875 12.6964L12.375 14.5019V3.30427L16.875 1.49874V12.6964Z" fill="#00385D"/>
</svg>
