<svg width="18" height="18" viewBox="0 0 18 18" fill="none" xmlns="http://www.w3.org/2000/svg">
<path d="M9 18.001C7.21997 18.001 5.47991 17.4731 3.99987 16.4842C2.51983 15.4953 1.36628 14.0897 0.685088 12.4451C0.00389956 10.8006 -0.17433 8.991 0.172936 7.24517C0.520203 5.49934 1.37737 3.89569 2.63604 2.63702C3.89472 1.37835 5.49836 0.52118 7.24419 0.173913C8.99002 -0.173354 10.7996 0.00487612 12.4442 0.686065C14.0887 1.36725 15.4943 2.52081 16.4832 4.00085C17.4722 5.48089 18 7.22095 18 9.00098C17.9973 11.3871 17.0482 13.6747 15.361 15.3619C13.6737 17.0492 11.3861 17.9983 9 18.001ZM9 1.12547C7.44237 1.12547 5.91972 1.58736 4.6246 2.45273C3.32948 3.3181 2.32006 4.54809 1.72398 5.98715C1.1279 7.42621 0.971937 9.00972 1.27582 10.5374C1.57969 12.0651 2.32976 13.4684 3.43117 14.5698C4.53258 15.6712 5.93587 16.4213 7.46357 16.7252C8.99127 17.029 10.5748 16.8731 12.0138 16.277C13.4529 15.6809 14.6829 14.6715 15.5483 13.3764C16.4136 12.0813 16.8755 10.5586 16.8755 9.00098C16.8733 6.91293 16.0429 4.91103 14.5664 3.43456C13.09 1.95808 11.088 1.12764 9 1.12547Z" fill="#00385D"/>
<path fill-rule="evenodd" clip-rule="evenodd" d="M8.60218 13.3352C8.70762 13.4407 8.85063 13.4999 8.99974 13.4999C9.07366 13.5 9.14689 13.4856 9.21522 13.4574C9.28355 13.4292 9.34566 13.3878 9.39797 13.3356C9.45029 13.2834 9.4918 13.2213 9.52012 13.1531C9.54844 13.0848 9.56301 13.0116 9.56301 12.9377V9.5632H12.9363C13.0856 9.5632 13.2287 9.50391 13.3342 9.39837C13.4398 9.29283 13.4991 9.14969 13.4991 9.00044C13.4991 8.85119 13.4398 8.70805 13.3342 8.60251C13.2287 8.49697 13.0856 8.43768 12.9363 8.43768H9.56301V5.06215C9.56301 4.91289 9.50372 4.76976 9.39819 4.66422C9.29265 4.55868 9.14951 4.49939 9.00026 4.49939C8.851 4.49939 8.70787 4.55868 8.60233 4.66422C8.49679 4.76976 8.4375 4.91289 8.4375 5.06215V8.43768H5.0608C4.91155 8.43768 4.76841 8.49697 4.66287 8.60251C4.55734 8.70805 4.49805 8.85119 4.49805 9.00044C4.49805 9.14969 4.55734 9.29283 4.66287 9.39837C4.76841 9.50391 4.91155 9.5632 5.0608 9.5632H8.4375V12.9377C8.4375 13.0868 8.49674 13.2298 8.60218 13.3352Z" fill="#00385D"/>
</svg>
