<svg width="16" height="16" viewBox="0 0 16 16" fill="none" xmlns="http://www.w3.org/2000/svg">
<path d="M2.28533 10.2854C3.54749 10.2854 4.57067 9.26221 4.57067 8.00006C4.57067 6.7379 3.54749 5.71472 2.28533 5.71472C1.02318 5.71472 0 6.7379 0 8.00006C0 9.26221 1.02318 10.2854 2.28533 10.2854Z" fill="#237DF1"/>
<path d="M8.0006 10.2854C9.26276 10.2854 10.2859 9.26221 10.2859 8.00006C10.2859 6.7379 9.26276 5.71472 8.0006 5.71472C6.73845 5.71472 5.71527 6.7379 5.71527 8.00006C5.71527 9.26221 6.73845 10.2854 8.0006 10.2854Z" fill="#237DF1"/>
<path d="M13.7142 10.2854C14.9763 10.2854 15.9995 9.26221 15.9995 8.00006C15.9995 6.7379 14.9763 5.71472 13.7142 5.71472C12.452 5.71472 11.4288 6.7379 11.4288 8.00006C11.4288 9.26221 12.452 10.2854 13.7142 10.2854Z" fill="#237DF1"/>
</svg>
