<svg width="18" height="18" viewBox="0 0 18 18" fill="none" xmlns="http://www.w3.org/2000/svg">
<g clip-path="url(#clip0_77_6176)">
<path d="M3.52008 8.60977H2.63256L3.07632 7.83965C3.12814 7.74961 3.14214 7.64263 3.11525 7.54224C3.08835 7.44186 3.02276 7.35629 2.9329 7.30436C2.84304 7.25244 2.73628 7.23841 2.63609 7.26536C2.53591 7.29231 2.45051 7.35803 2.39869 7.44807L1.95494 8.2182L1.51118 7.44807C1.45936 7.35803 1.37396 7.29231 1.27378 7.26536C1.1736 7.23841 1.06683 7.25244 0.976975 7.30436C0.887116 7.35629 0.821523 7.44186 0.794626 7.54224C0.76773 7.64263 0.781732 7.74961 0.833553 7.83965L1.27731 8.60977H0.390797C0.287021 8.60977 0.187497 8.65108 0.114116 8.72461C0.0407363 8.79813 -0.000488281 8.89786 -0.000488281 9.00184C-0.000488281 9.10583 0.0407363 9.20555 0.114116 9.27908C0.187497 9.35261 0.287021 9.39392 0.390797 9.39392H1.27731L0.833553 10.164C0.807751 10.2086 0.790979 10.2578 0.784199 10.3089C0.777418 10.36 0.780762 10.4119 0.794039 10.4617C0.807316 10.5114 0.830265 10.5581 0.861571 10.599C0.892877 10.6398 0.931924 10.6741 0.976475 10.6998C1.03714 10.7351 1.10625 10.7531 1.17637 10.7519C1.24564 10.7517 1.31362 10.733 1.37333 10.6978C1.43304 10.6626 1.48234 10.6122 1.51618 10.5516L1.95894 9.78148L2.40269 10.5516C2.43653 10.6122 2.48583 10.6626 2.54554 10.6978C2.60525 10.733 2.67323 10.7517 2.7425 10.7519C2.81262 10.7531 2.88173 10.7351 2.94239 10.6998C2.98695 10.6741 3.02599 10.6398 3.0573 10.599C3.0886 10.5581 3.11155 10.5114 3.12483 10.4617C3.13811 10.4119 3.14145 10.36 3.13467 10.3089C3.12789 10.2578 3.11112 10.2086 3.08532 10.164L2.63256 9.39291H3.51908C3.62285 9.39291 3.72238 9.35161 3.79576 9.27808C3.86914 9.20455 3.91036 9.10483 3.91036 9.00084C3.91036 8.89686 3.86914 8.79713 3.79576 8.7236C3.72238 8.65008 3.62285 8.60877 3.51908 8.60877L3.52008 8.60977Z" fill="#00385D"/>
<path d="M8.21183 8.60977H7.32531L7.76907 7.83965C7.81088 7.75091 7.81791 7.64969 7.78878 7.55601C7.75965 7.46232 7.69648 7.38301 7.61178 7.33378C7.52707 7.28454 7.42701 7.26896 7.33139 7.29013C7.23577 7.31129 7.15156 7.36766 7.09544 7.44807L6.65168 8.2182L6.20793 7.44807C6.15611 7.35803 6.07071 7.29231 5.97053 7.26536C5.87034 7.23841 5.76358 7.25244 5.67372 7.30436C5.58386 7.35629 5.51827 7.44186 5.49137 7.54224C5.46448 7.64263 5.47848 7.74961 5.5303 7.83965L5.97406 8.60977H5.08355C4.97977 8.60977 4.88025 8.65108 4.80687 8.72461C4.73349 8.79813 4.69226 8.89786 4.69226 9.00184C4.69226 9.10583 4.73349 9.20555 4.80687 9.27908C4.88025 9.35261 4.97977 9.39392 5.08355 9.39392H5.97006L5.5263 10.164C5.5005 10.2086 5.48373 10.2578 5.47695 10.3089C5.47017 10.36 5.47351 10.4119 5.48679 10.4617C5.50007 10.5114 5.52301 10.5581 5.55432 10.599C5.58563 10.6398 5.62467 10.6741 5.66922 10.6998C5.72989 10.7351 5.799 10.7531 5.86911 10.7519C5.93839 10.7517 6.00636 10.733 6.06608 10.6978C6.12579 10.6626 6.17509 10.6122 6.20893 10.5516L6.65168 9.78148L7.09544 10.5516C7.12928 10.6122 7.17858 10.6626 7.23829 10.6978C7.298 10.733 7.36598 10.7517 7.43525 10.7519C7.50537 10.7531 7.57448 10.7351 7.63514 10.6998C7.67969 10.6741 7.71874 10.6398 7.75005 10.599C7.78135 10.5581 7.8043 10.5114 7.81758 10.4617C7.83086 10.4119 7.8342 10.36 7.82742 10.3089C7.82064 10.2578 7.80387 10.2086 7.77807 10.164L7.32531 9.39291H8.21183C8.3156 9.39291 8.41513 9.35161 8.48851 9.27808C8.56189 9.20455 8.60311 9.10483 8.60311 9.00084C8.60311 8.89686 8.56189 8.79713 8.48851 8.7236C8.41513 8.65008 8.3156 8.60877 8.21183 8.60877V8.60977Z" fill="#00385D"/>
<path d="M12.9065 8.60977H12.02L12.4637 7.83964C12.4894 7.79506 12.506 7.74585 12.5127 7.69482C12.5194 7.64379 12.516 7.59195 12.5027 7.54224C12.4894 7.49253 12.4664 7.44594 12.4351 7.40513C12.4038 7.36431 12.3648 7.33007 12.3203 7.30436C12.2758 7.27865 12.2267 7.26197 12.1758 7.25528C12.1249 7.24859 12.0731 7.25201 12.0235 7.26536C11.9739 7.2787 11.9274 7.30171 11.8867 7.33306C11.8459 7.36441 11.8118 7.40349 11.7861 7.44807L11.3424 8.2182L10.8946 7.44807C10.8689 7.40349 10.8348 7.36441 10.794 7.33306C10.7533 7.30171 10.7068 7.2787 10.6572 7.26536C10.6076 7.25201 10.5559 7.24859 10.5049 7.25528C10.454 7.26197 10.4049 7.27865 10.3604 7.30436C10.3159 7.33007 10.2769 7.36431 10.2456 7.40513C10.2143 7.44594 10.1914 7.49253 10.178 7.54224C10.1647 7.59195 10.1613 7.64379 10.168 7.69482C10.1747 7.74585 10.1913 7.79506 10.217 7.83964L10.6607 8.60977H9.77822C9.67444 8.60977 9.57492 8.65108 9.50154 8.7246C9.42816 8.79813 9.38693 8.89786 9.38693 9.00184C9.38693 9.10583 9.42816 9.20555 9.50154 9.27908C9.57492 9.35261 9.67444 9.39391 9.77822 9.39391H10.6647L10.221 10.164C10.1952 10.2086 10.1784 10.2578 10.1716 10.3089C10.1648 10.36 10.1682 10.4119 10.1815 10.4617C10.1947 10.5114 10.2177 10.5581 10.249 10.599C10.2803 10.6398 10.3193 10.6741 10.3639 10.6998C10.4246 10.7351 10.4937 10.7531 10.5638 10.7519C10.6331 10.7517 10.701 10.733 10.7607 10.6978C10.8205 10.6626 10.8698 10.6122 10.9036 10.5516L11.3464 9.78148L11.7901 10.5516C11.824 10.6122 11.8733 10.6626 11.933 10.6978C11.9927 10.733 12.0606 10.7517 12.1299 10.7519C12.2 10.7531 12.2691 10.7351 12.3298 10.6998C12.3744 10.6741 12.4134 10.6398 12.4447 10.599C12.476 10.5581 12.499 10.5114 12.5122 10.4617C12.5255 10.4119 12.5289 10.36 12.5221 10.3089C12.5153 10.2578 12.4985 10.2086 12.4727 10.164L12.029 9.39391H12.9155C13.0193 9.39391 13.1188 9.35261 13.1922 9.27908C13.2656 9.20555 13.3068 9.10583 13.3068 9.00184C13.3068 8.89786 13.2656 8.79813 13.1922 8.7246C13.1188 8.65108 13.0193 8.60977 12.9155 8.60977H12.9065Z" fill="#00385D"/>
<path d="M17.5992 8.60977H16.7127L17.1565 7.83965C17.1821 7.79506 17.1988 7.74585 17.2054 7.69482C17.2121 7.64379 17.2087 7.59195 17.1954 7.54224C17.1821 7.49254 17.1591 7.44594 17.1278 7.40513C17.0965 7.36431 17.0575 7.33007 17.013 7.30436C16.9232 7.25244 16.8164 7.23841 16.7162 7.26536C16.616 7.29231 16.5307 7.35803 16.4788 7.44807L16.0351 8.2182L15.5913 7.44807C15.5657 7.40349 15.5315 7.36441 15.4908 7.33306C15.45 7.30171 15.4035 7.2787 15.3539 7.26536C15.3043 7.25201 15.2526 7.24859 15.2016 7.25528C15.1507 7.26197 15.1016 7.27865 15.0571 7.30436C15.0126 7.33007 14.9736 7.36431 14.9423 7.40513C14.911 7.44594 14.8881 7.49254 14.8748 7.54224C14.8614 7.59195 14.858 7.64379 14.8647 7.69482C14.8714 7.74585 14.888 7.79506 14.9137 7.83965L15.3574 8.60977H14.4709C14.3672 8.60977 14.2676 8.65108 14.1943 8.72461C14.1209 8.79813 14.0797 8.89786 14.0797 9.00184C14.0797 9.10583 14.1209 9.20555 14.1943 9.27908C14.2676 9.35261 14.3672 9.39392 14.4709 9.39392H15.3574L14.9137 10.164C14.8879 10.2086 14.8711 10.2578 14.8643 10.3089C14.8576 10.36 14.8609 10.4119 14.8742 10.4617C14.8875 10.5114 14.9104 10.5581 14.9417 10.599C14.973 10.6398 15.0121 10.6741 15.0566 10.6998C15.1173 10.7351 15.1864 10.7531 15.2565 10.7519C15.3258 10.7517 15.3938 10.733 15.4535 10.6978C15.5132 10.6626 15.5625 10.6122 15.5963 10.5516L16.0391 9.78148L16.4828 10.5516C16.5167 10.6122 16.566 10.6626 16.6257 10.6978C16.6854 10.733 16.7534 10.7517 16.8226 10.7519C16.8928 10.7531 16.9619 10.7351 17.0225 10.6998C17.0671 10.6741 17.1061 10.6398 17.1374 10.599C17.1687 10.5581 17.1917 10.5114 17.205 10.4617C17.2182 10.4119 17.2216 10.36 17.2148 10.3089C17.208 10.2578 17.1913 10.2086 17.1655 10.164L16.7217 9.39392H17.6082C17.712 9.39392 17.8115 9.35261 17.8849 9.27908C17.9583 9.20555 17.9995 9.10583 17.9995 9.00184C17.9995 8.89786 17.9583 8.79813 17.8849 8.72461C17.8115 8.65108 17.712 8.60977 17.6082 8.60977H17.5992Z" fill="#00385D"/>
</g>
<defs>
<clipPath id="clip0_77_6176">
<rect width="18" height="18" fill="white"/>
</clipPath>
</defs>
</svg>
