<svg width="18" height="18" viewBox="0 0 18 18" fill="none" xmlns="http://www.w3.org/2000/svg">
<path d="M18 10.168C17.9986 9.72046 17.8513 9.28555 17.5804 8.92918C17.3095 8.57281 16.9298 8.31439 16.4988 8.19308V6.12688C16.4988 1.91628 12.6095 0 8.99016 0C5.37083 0 1.49196 1.91628 1.49196 6.12688V8.19959C1.03503 8.32909 0.637199 8.61302 0.36634 9.00295C0.0954813 9.39289 -0.0316293 9.86468 0.00669165 10.3378C0.0450126 10.811 0.246391 11.2562 0.576475 11.5975C0.906559 11.9388 1.3449 12.1551 1.81672 12.2094C2.22306 13.8212 3.14234 15.2575 4.43611 16.3018C5.72989 17.3462 7.32813 17.9422 8.99016 18C10.6539 17.9438 12.2542 17.3485 13.5498 16.3037C14.8454 15.259 15.766 13.8215 16.1727 12.2081C16.6746 12.1512 17.1381 11.912 17.475 11.5358C17.8119 11.1597 17.9987 10.6729 18 10.168ZM13.5759 13.427C13.4155 13.3162 13.2512 13.2145 13.0855 13.1154L14.682 11.9631C14.493 12.5547 14.2301 13.1202 13.8994 13.646L13.5759 13.427ZM4.09396 13.646C3.7633 13.1202 3.50037 12.5547 3.3114 11.9631L4.90782 13.1154C4.74218 13.2132 4.57784 13.3162 4.41742 13.4257L4.09396 13.646ZM6.02948 12.5692C6.00595 12.5371 5.97882 12.5078 5.94862 12.4819L3.01273 10.3623C3.0049 10.2319 2.99186 10.1015 2.99186 9.96075V7.34705L3.39618 7.2571C4.85172 6.93114 6.17497 6.17376 7.19289 5.08401C8.66132 6.18262 10.3957 6.87099 12.2182 7.07851L14.9989 7.39658V9.96205C14.9989 10.0924 14.9859 10.2293 14.978 10.3636L12.0421 12.4819C12.012 12.5079 11.9848 12.5372 11.9613 12.5692C10.0539 11.8236 7.93552 11.8236 6.02818 12.5692H6.02948Z" fill="#00385D"/>
</svg>
