<svg width="19" height="18" viewBox="0 0 19 18" fill="none" xmlns="http://www.w3.org/2000/svg">
<path d="M9.5 0C7.71997 0 5.97991 0.527841 4.49987 1.51677C3.01983 2.50571 1.86628 3.91131 1.18509 5.55585C0.5039 7.20038 0.32567 9.00998 0.672937 10.7558C1.0202 12.5016 1.87737 14.1053 3.13604 15.364C4.39472 16.6226 5.99836 17.4798 7.74419 17.8271C9.49002 18.1743 11.2996 17.9961 12.9442 17.3149C14.5887 16.6337 15.9943 15.4802 16.9832 14.0001C17.9722 12.5201 18.5 10.78 18.5 9C18.4974 6.61386 17.5483 4.32622 15.861 2.63896C14.1738 0.951708 11.8861 0.00264685 9.5 0V0ZM13.438 9.75H10.25V12.938C10.25 13.1369 10.171 13.3277 10.0303 13.4683C9.88968 13.609 9.69892 13.688 9.5 13.688C9.30109 13.688 9.11033 13.609 8.96967 13.4683C8.82902 13.3277 8.75 13.1369 8.75 12.938V9.75H5.563C5.36409 9.75 5.17333 9.67098 5.03267 9.53033C4.89202 9.38968 4.813 9.19891 4.813 9C4.813 8.80109 4.89202 8.61032 5.03267 8.46967C5.17333 8.32902 5.36409 8.25 5.563 8.25H8.75V5.063C8.75 4.86409 8.82902 4.67332 8.96967 4.53267C9.11033 4.39202 9.30109 4.313 9.5 4.313C9.69892 4.313 9.88968 4.39202 10.0303 4.53267C10.171 4.67332 10.25 4.86409 10.25 5.063V8.25H13.438C13.6369 8.25 13.8277 8.32902 13.9683 8.46967C14.109 8.61032 14.188 8.80109 14.188 9C14.188 9.19891 14.109 9.38968 13.9683 9.53033C13.8277 9.67098 13.6369 9.75 13.438 9.75Z" fill="white"/>
</svg>
