<svg width="18" height="18" viewBox="0 0 18 18" fill="none" xmlns="http://www.w3.org/2000/svg">
<path d="M0.565885 14.2334H7.16589C7.28965 14.2334 7.40835 14.1843 7.49587 14.0967C7.58339 14.0092 7.63255 13.8905 7.63255 13.7668V8.26676C7.63255 7.26778 7.23571 6.30972 6.52932 5.60333C5.82293 4.89694 4.86487 4.5001 3.86589 4.5001C2.8669 4.5001 1.90884 4.89694 1.20245 5.60333C0.496063 6.30972 0.0992187 7.26778 0.0992187 8.26676V13.7668C0.0992187 13.8905 0.148385 14.0092 0.235902 14.0967C0.323419 14.1843 0.442118 14.2334 0.565885 14.2334ZM6.69922 8.26676V13.3001H1.03255V8.26676C1.03255 7.51532 1.33106 6.79465 1.86242 6.2633C2.39377 5.73194 3.11444 5.43343 3.86589 5.43343C4.61733 5.43343 5.338 5.73194 5.86935 6.2633C6.40071 6.79465 6.69922 7.51532 6.69922 8.26676Z" fill="#00385D" stroke="#00385D" stroke-width="0.2"/>
<path d="M14.1334 4.5001H14.1333H3.86667C3.7429 4.5001 3.6242 4.54926 3.53668 4.63678C3.44917 4.7243 3.4 4.843 3.4 4.96676C3.4 5.09053 3.44917 5.20923 3.53668 5.29675C3.6242 5.38426 3.7429 5.43343 3.86667 5.43343H14.1333C14.8848 5.43343 15.6054 5.73194 16.1368 6.2633C16.6682 6.79465 16.9667 7.51532 16.9667 8.26676V13.3001H7.16667C7.0429 13.3001 6.9242 13.3493 6.83668 13.4368C6.74917 13.5243 6.7 13.643 6.7 13.7668C6.7 13.8905 6.74917 14.0092 6.83668 14.0967C6.9242 14.1843 7.0429 14.2334 7.16667 14.2334H17.4333C17.5571 14.2334 17.6758 14.1843 17.7633 14.0967C17.8508 14.0092 17.9 13.8905 17.9 13.7668V8.26676V8.26666C17.8989 7.26803 17.5018 6.31061 16.7956 5.60447C16.0895 4.89834 15.1321 4.50116 14.1334 4.5001Z" fill="#00385D" stroke="#00385D" stroke-width="0.2"/>
<path d="M9.7691 17.7637C9.85662 17.8512 9.97532 17.9004 10.0991 17.9004C10.2229 17.9004 10.3416 17.8512 10.4291 17.7637C10.5166 17.6762 10.5658 17.5575 10.5658 17.4337V13.7671C10.5658 13.6433 10.5166 13.5246 10.4291 13.4371C10.3416 13.3496 10.2229 13.3004 10.0991 13.3004C9.97532 13.3004 9.85662 13.3496 9.76911 13.4371C9.68159 13.5246 9.63242 13.6433 9.63242 13.7671V17.4337C9.63242 17.5575 9.68159 17.6762 9.7691 17.7637Z" fill="#00385D" stroke="#00385D" stroke-width="0.2"/>
<path d="M2.43585 5.29684C2.52337 5.38436 2.64207 5.43353 2.76584 5.43353C2.8896 5.43353 3.0083 5.38436 3.09582 5.29684C3.18334 5.20933 3.2325 5.09063 3.2325 4.96686V0.566862C3.2325 0.443094 3.18334 0.324396 3.09582 0.236879C3.0083 0.149362 2.8896 0.100195 2.76584 0.100195C2.64207 0.100195 2.52337 0.149362 2.43585 0.236879C2.34834 0.324396 2.29917 0.443094 2.29917 0.566862V4.96686C2.29917 5.09063 2.34834 5.20933 2.43585 5.29684Z" fill="#00385D" stroke="#00385D" stroke-width="0.2"/>
<path d="M2.76584 3.23353H6.4325C6.55627 3.23353 6.67497 3.18436 6.76249 3.09685C6.85 3.00933 6.89917 2.89063 6.89917 2.76686V0.566862C6.89917 0.443094 6.85 0.324396 6.76249 0.236879C6.67497 0.149362 6.55627 0.100195 6.4325 0.100195H2.76584C2.64207 0.100195 2.52337 0.149362 2.43585 0.236879C2.34834 0.324396 2.29917 0.443094 2.29917 0.566862V2.76686C2.29917 2.89063 2.34834 3.00933 2.43585 3.09685C2.52337 3.18436 2.64207 3.23353 2.76584 3.23353ZM5.96584 1.03353V2.3002H3.2325V1.03353H5.96584Z" fill="#00385D" stroke="#00385D" stroke-width="0.2"/>
</svg>
