<svg width="18" height="18" viewBox="0 0 18 18" fill="none" xmlns="http://www.w3.org/2000/svg">
<path d="M9.75 13.5C9.75 13.6483 9.70601 13.7933 9.6236 13.9167C9.54119 14.04 9.42406 14.1361 9.28701 14.1929C9.14997 14.2497 8.99917 14.2645 8.85368 14.2356C8.7082 14.2067 8.57456 14.1352 8.46967 14.0303C8.36478 13.9254 8.29335 13.7918 8.26441 13.6463C8.23547 13.5008 8.25033 13.35 8.30709 13.213C8.36386 13.0759 8.45999 12.9588 8.58332 12.8764C8.70666 12.794 8.85166 12.75 9 12.75C9.19891 12.75 9.38968 12.829 9.53033 12.9697C9.67098 13.1103 9.75 13.3011 9.75 13.5Z" fill="#00385D"/>
<path d="M8.99999 11.0632C8.85102 11.0629 8.70822 11.0036 8.60289 10.8983C8.49755 10.793 8.43825 10.6502 8.43799 10.5012V9.7432C8.43829 9.39419 8.54658 9.05381 8.748 8.76878C8.94942 8.48375 9.2341 8.26802 9.56299 8.1512C9.97222 7.99774 10.33 7.73213 10.5953 7.38478C10.8605 7.03744 11.0226 6.6224 11.063 6.1872C11.0511 5.64806 10.8286 5.13499 10.4431 4.75789C10.0576 4.38078 9.53976 4.16962 9.00049 4.16962C8.46121 4.16962 7.94337 4.38078 7.55787 4.75789C7.17237 5.13499 6.94986 5.64806 6.93799 6.1872C6.93187 6.33228 6.86993 6.46939 6.76511 6.56988C6.66029 6.67038 6.5207 6.72648 6.37549 6.72648C6.23028 6.72648 6.09068 6.67038 5.98586 6.56988C5.88104 6.46939 5.81911 6.33228 5.81299 6.1872C5.82779 5.3516 6.17012 4.55523 6.76628 3.96953C7.36244 3.38384 8.16476 3.05566 9.00049 3.05566C9.83622 3.05566 10.6385 3.38384 11.2347 3.96953C11.8309 4.55523 12.1732 5.3516 12.188 6.1872C12.1469 6.85535 11.9122 7.4971 11.5127 8.03422C11.1132 8.57134 10.5661 8.98063 9.93799 9.2122C9.82815 9.25104 9.73303 9.32294 9.6657 9.41802C9.59837 9.5131 9.56214 9.6267 9.56199 9.7432V10.5002C9.56199 10.6493 9.50281 10.7924 9.39744 10.898C9.29208 11.0035 9.14913 11.0629 8.99999 11.0632Z" fill="#00385D"/>
<path d="M15.937 18H2.063C1.51594 17.9997 0.991361 17.7823 0.604531 17.3955C0.217701 17.0086 0.000264984 16.4841 0 15.937L0 2.063C0.000264984 1.51594 0.217701 0.991361 0.604531 0.604531C0.991361 0.217701 1.51594 0.000264984 2.063 0H15.937C16.4841 0.000264984 17.0086 0.217701 17.3955 0.604531C17.7823 0.991361 17.9997 1.51594 18 2.063V15.937C17.9997 16.4841 17.7823 17.0086 17.3955 17.3955C17.0086 17.7823 16.4841 17.9997 15.937 18ZM2.063 1.125C1.81431 1.12526 1.57588 1.22417 1.40003 1.40003C1.22417 1.57588 1.12526 1.81431 1.125 2.063V15.937C1.12526 16.1857 1.22417 16.4241 1.40003 16.6C1.57588 16.7758 1.81431 16.8747 2.063 16.875H15.937C16.1857 16.8747 16.4241 16.7758 16.6 16.6C16.7758 16.4241 16.8747 16.1857 16.875 15.937V2.063C16.8747 1.81431 16.7758 1.57588 16.6 1.40003C16.4241 1.22417 16.1857 1.12526 15.937 1.125H2.063Z" fill="#00385D"/>
</svg>
