<svg width="18" height="18" viewBox="0 0 18 18" fill="none" xmlns="http://www.w3.org/2000/svg">
<path d="M8.99922 17.9H8.99933C11.3589 17.8973 13.6211 16.9588 15.2896 15.2903C16.9581 13.6219 17.8966 11.3597 17.8992 9.00006V8.99995C17.8992 7.2397 17.3772 5.51898 16.3993 4.05538C15.4214 2.59178 14.0314 1.45105 12.4051 0.777427C10.7788 0.103807 8.98935 -0.0724423 7.26292 0.270966C5.53649 0.614374 3.95066 1.46202 2.70597 2.7067C1.46128 3.95139 0.613642 5.53722 0.270234 7.26365C-0.0731747 8.99008 0.103075 10.7796 0.776695 12.4058C1.45031 14.0321 2.59105 15.4221 4.05465 16.4C5.51824 17.378 7.23897 17.9 8.99922 17.9ZM4.57318 2.37591C5.88328 1.50053 7.42355 1.03329 8.9992 1.03329C11.1113 1.03587 13.1362 1.87604 14.6296 3.36953C16.1232 4.86304 16.9633 6.88794 16.9659 9.00007C16.9659 10.5757 16.4986 12.1159 15.6233 13.426C14.7479 14.7361 13.5036 15.7572 12.0479 16.3602C10.5922 16.9632 8.99038 17.1209 7.445 16.8135C5.89962 16.5061 4.4801 15.7474 3.36594 14.6332C2.25178 13.5191 1.49303 12.0996 1.18563 10.5542C0.878238 9.00879 1.036 7.40696 1.63898 5.95124C2.24196 4.49552 3.26307 3.2513 4.57318 2.37591Z" fill="#00385D" stroke="#00385D" stroke-width="0.2"/>
<path d="M4.96628 9.46663H13.0329C13.1567 9.46663 13.2754 9.41747 13.3629 9.32995C13.4504 9.24243 13.4996 9.12373 13.4996 8.99997C13.4996 8.8762 13.4504 8.7575 13.3629 8.66998C13.2754 8.58247 13.1567 8.5333 13.0329 8.5333H4.96628C4.84251 8.5333 4.72381 8.58247 4.63629 8.66998C4.54878 8.7575 4.49961 8.8762 4.49961 8.99997C4.49961 9.12374 4.54878 9.24243 4.63629 9.32995C4.72381 9.41747 4.84251 9.46663 4.96628 9.46663Z" fill="#00385D" stroke="#00385D" stroke-width="0.2"/>
</svg>
