<svg width="16" height="16" viewBox="0 0 16 16" fill="none" xmlns="http://www.w3.org/2000/svg">
<path d="M1.95454 1.95122C3.08879 0.814846 4.59391 0.127656 6.19297 0.0160868C7.79204 -0.0954828 9.37747 0.376073 10.6576 1.34399C11.9377 2.31191 12.8263 3.71108 13.16 5.28407C13.4937 6.85706 13.2501 8.49804 12.4738 9.90511L15.4722 12.9134C15.8101 13.2525 16 13.7124 16 14.1919C16 14.6714 15.8101 15.1313 15.4722 15.4704C15.1342 15.8095 14.6758 16 14.1979 16C13.7199 16 13.2615 15.8095 12.9236 15.4704L9.93819 12.4762C8.53772 13.2744 6.89618 13.5357 5.31824 13.2116C3.74031 12.8875 2.33316 12 1.35796 10.7139C0.382757 9.42781 -0.0942541 7.8304 0.0154601 6.21817C0.125174 4.60594 0.814162 3.0884 1.95454 1.94721V1.95122ZM3.1319 10.2059C3.82915 10.9053 4.71745 11.3816 5.68446 11.5745C6.65148 11.7673 7.65379 11.6682 8.56465 11.2896C9.47552 10.911 10.254 10.2699 10.8018 9.4474C11.3495 8.62489 11.6419 7.6579 11.6419 6.6687C11.6419 5.6795 11.3495 4.71251 10.8018 3.89C10.254 3.06749 9.47552 2.42641 8.56465 2.0478C7.65379 1.66919 6.65148 1.57006 5.68446 1.76295C4.71745 1.95584 3.82915 2.43209 3.1319 3.13147C2.66499 3.59377 2.29426 4.14451 2.04123 4.75173C1.78819 5.35895 1.65789 6.01055 1.65789 6.6687C1.65789 7.32685 1.78819 7.97845 2.04123 8.58567C2.29426 9.19289 2.66499 9.74363 3.1319 10.2059Z" fill="#237DF1"/>
</svg>
