<svg width="32" height="18" viewBox="0 0 32 18" fill="none" xmlns="http://www.w3.org/2000/svg">
<path d="M26 0H6C2.68629 0 0 2.68629 0 6V12C0 15.3137 2.68629 18 6 18H26C29.3137 18 32 15.3137 32 12V6C32 2.68629 29.3137 0 26 0Z" fill="white"/>
<path d="M6 0.5H26C29.0376 0.5 31.5 2.96243 31.5 6V12C31.5 15.0376 29.0376 17.5 26 17.5H6C2.96243 17.5 0.5 15.0376 0.5 12V6C0.5 2.96243 2.96243 0.5 6 0.5Z" stroke="#00385D" stroke-opacity="0.1"/>
<path d="M8.64497 12.9201H10.0723V6.27886H12.3273V5.08008H6.39001V6.27886H8.64497V12.9201Z" fill="#00385D" fill-opacity="0.3"/>
<path d="M14.7722 8.77231C15.0241 7.94515 15.252 7.05806 15.4559 6.19494H15.5038C15.7317 7.04607 15.9596 7.94515 16.2115 8.77231L16.4754 9.70736H14.5083L14.7722 8.77231ZM12.1334 12.9201H13.5847L14.1844 10.8222H16.7872L17.387 12.9201H18.8983L16.3554 5.08008H14.6762L12.1334 12.9201Z" fill="#00385D" fill-opacity="0.3"/>
<path d="M19.8647 12.9201H22.5874C24.3146 12.9201 25.61 12.1888 25.61 10.6184C25.61 9.5635 24.9743 8.95213 24.1107 8.76032V8.71237C24.7824 8.47262 25.1902 7.75335 25.1902 7.01011C25.1902 5.57158 24.0028 5.08008 22.3835 5.08008H19.8647V12.9201ZM21.292 8.30479V6.19494H22.2875C23.2951 6.19494 23.7989 6.47066 23.7989 7.2139C23.7989 7.88522 23.3311 8.30479 22.2636 8.30479H21.292ZM21.292 11.8052V9.3717H22.4435C23.5949 9.3717 24.2067 9.73133 24.2067 10.5345C24.2067 11.4096 23.583 11.8052 22.4435 11.8052H21.292Z" fill="#00385D" fill-opacity="0.3"/>
</svg>
