<svg width="28" height="28" viewBox="0 0 28 28" fill="none" xmlns="http://www.w3.org/2000/svg">
<rect width="28" height="28" rx="4" fill="#E1FDDC"/>
<path d="M19.8327 9.43459C19.8327 9.34524 19.8054 9.25805 19.7543 9.18476C19.7032 9.11147 19.6308 9.05563 19.547 9.02476L14.1515 7.02718C14.0533 6.99094 13.9455 6.99094 13.8473 7.02718L8.4524 9.02476C8.36852 9.05555 8.29612 9.11137 8.24501 9.18468C8.19391 9.25798 8.16657 9.34522 8.16669 9.43459V14.1018C8.16669 19.4123 13.8301 20.9701 13.888 20.9854C13.9614 21.0049 14.0386 21.0049 14.112 20.9854C14.1693 20.9701 19.8334 19.4117 19.8334 14.1018L19.8327 9.43459ZM16.9266 14.3086L14.3176 17.0711C14.2766 17.1144 14.2273 17.1489 14.1726 17.1724C14.1179 17.196 14.059 17.2082 13.9994 17.2082C13.9398 17.2082 13.8809 17.196 13.8262 17.1724C13.7715 17.1489 13.7221 17.1144 13.6812 17.0711L11.0722 14.3092C10.7072 13.9138 10.5044 13.3955 10.5044 12.8573C10.5044 12.3192 10.7072 11.8008 11.0722 11.4054C11.2552 11.2178 11.4738 11.0687 11.7153 10.9669C11.9568 10.8651 12.2162 10.8126 12.4782 10.8126C12.7403 10.8126 12.9997 10.8651 13.2411 10.9669C13.4826 11.0687 13.7013 11.2178 13.8842 11.4054L14.0013 11.5327L14.1184 11.4054C14.3013 11.2178 14.52 11.0687 14.7614 10.9669C15.0029 10.8651 15.2623 10.8126 15.5244 10.8126C15.7864 10.8126 16.0458 10.8651 16.2873 10.9669C16.5288 11.0687 16.7474 11.2178 16.9304 11.4054C17.2954 11.8007 17.4981 12.319 17.4981 12.857C17.4981 13.395 17.2954 13.9133 16.9304 14.3086H16.9266Z" fill="#26DA31"/>
</svg>
