<svg width="18" height="18" viewBox="0 0 18 18" fill="none" xmlns="http://www.w3.org/2000/svg">
<path d="M9.03204 3.4808e-05C10.8112 0.00636727 12.5486 0.539889 14.0247 1.5332C15.5007 2.5265 16.6493 3.93502 17.3252 5.5808C18.0012 7.22659 18.1741 9.03579 17.8223 10.7798C17.4704 12.5239 16.6095 14.1245 15.3484 15.3795C14.0873 16.6345 12.4825 17.4875 10.7367 17.8308C8.99097 18.1742 7.18264 17.9924 5.54018 17.3084C3.89772 16.6244 2.49483 15.469 1.50875 13.9881C0.52267 12.5072 -0.00235487 10.7672 7.94021e-06 8.98803C0.0025015 7.80471 0.238144 6.63347 0.693471 5.54125C1.1488 4.44903 1.81488 3.45724 2.65366 2.62255C3.49244 1.78786 4.48748 1.12663 5.58191 0.676644C6.67634 0.226661 7.84872 -0.00325484 9.03204 3.4808e-05ZM3.51675 14.4253C3.53576 14.3802 3.54977 14.3552 3.55878 14.3252C3.75744 13.6645 4.09606 13.0544 4.55163 12.5363C5.00719 12.0182 5.569 11.6044 6.19884 11.3229C6.38198 11.2378 6.2839 11.1877 6.19884 11.1227C5.73096 10.7438 5.34842 10.2703 5.07627 9.7332C4.80412 9.19615 4.6485 8.60765 4.61961 8.00627C4.57671 7.29388 4.70828 6.58178 5.00291 5.93176C5.29754 5.28174 5.74633 4.71342 6.31034 4.27612C6.87435 3.83881 7.53654 3.54573 8.23946 3.4223C8.94239 3.29887 9.66481 3.34882 10.3441 3.56781C11.0952 3.78433 11.7706 4.20702 12.2937 4.78793C12.8167 5.36885 13.1665 6.08473 13.3034 6.85437C13.4835 7.6298 13.4413 8.44032 13.1817 9.19285C12.922 9.94538 12.4553 10.6094 11.8352 11.1087C11.7351 11.1988 11.6421 11.2438 11.8442 11.3379C12.9493 11.8312 13.8219 12.7311 14.2811 13.8508C14.3612 14.038 14.4302 14.2301 14.5053 14.4273C15.229 13.6958 15.7993 12.8271 16.1828 11.8723C16.5664 10.9175 16.7554 9.89567 16.7388 8.86683C16.7222 7.83798 16.5003 6.82281 16.0862 5.88084C15.6721 4.93888 15.074 4.08909 14.3271 3.38131C13.5803 2.67353 12.6995 2.12202 11.7367 1.75911C10.7738 1.3962 9.7482 1.22921 8.71995 1.26793C7.6917 1.30665 6.68153 1.55029 5.74869 1.98458C4.81585 2.41887 3.97912 3.03505 3.28757 3.79699C1.94576 5.25522 1.22023 7.17608 1.26295 9.15726C1.30567 11.1384 2.11332 13.0262 3.51675 14.4253Z" fill="#00385D"/>
</svg>
