<svg width="18" height="18" viewBox="0 0 18 18" fill="none" xmlns="http://www.w3.org/2000/svg">
<path d="M17.4731 15.891H16.1001L14.7671 11.765V11.32C14.7671 10.9005 14.6004 10.4981 14.3037 10.2014C14.0071 9.90471 13.6047 9.73804 13.1851 9.73804H8.2301C8.82763 10.3298 9.2804 11.0515 9.5531 11.847H11.2531V14.368C11.6002 14.2883 11.961 14.2883 12.3081 14.368V11.848H13.6871L15.2161 16.58C15.2503 16.6858 15.3171 16.7781 15.4069 16.8437C15.4967 16.9092 15.6049 16.9447 15.7161 16.945H17.4741C17.614 16.945 17.7482 16.8895 17.8471 16.7905C17.946 16.6916 18.0016 16.5574 18.0016 16.4175C18.0016 16.2776 17.946 16.1435 17.8471 16.0445C17.7482 15.9456 17.614 15.89 17.4741 15.89L17.4731 15.891Z" fill="#00385D"/>
<path d="M11.7771 17.999C12.505 17.999 13.0951 17.4089 13.0951 16.681C13.0951 15.9531 12.505 15.363 11.7771 15.363C11.0492 15.363 10.4591 15.9531 10.4591 16.681C10.4591 17.4089 11.0492 17.999 11.7771 17.999Z" fill="#00385D"/>
<path d="M10.0201 6.04694C10.3461 6.04747 10.6587 6.17723 10.8893 6.40779C11.1198 6.63834 11.2496 6.95089 11.2501 7.27694V8.68394H12.3001V7.27694C12.2993 6.67203 12.059 6.09205 11.6317 5.66384C11.2045 5.23564 10.625 4.99406 10.0201 4.99194H6.22009L6.32009 6.04694H10.0201Z" fill="#00385D"/>
<path d="M0.544059 1.055H1.62506L1.52806 2.27047e-06H0.528059C0.456701 -0.000207182 0.386045 0.0140771 0.320372 0.0419892C0.2547 0.0699012 0.19538 0.110859 0.14601 0.162381C0.0966388 0.213902 0.0582455 0.274913 0.0331573 0.341715C0.00806908 0.408517 -0.00319137 0.479719 5.86225e-05 0.551002C0.00974051 0.68787 0.0713511 0.815867 0.172288 0.908811C0.273224 1.00175 0.405858 1.05262 0.543059 1.051L0.544059 1.055Z" fill="#00385D"/>
<path d="M4.39504 8.156C4.7567 8.15587 5.11747 8.19171 5.47204 8.263L4.83204 1.434C4.79517 1.04162 4.61316 0.677123 4.32166 0.411885C4.03016 0.146648 3.65015 -0.000233417 3.25604 2.78437e-07H2.58704L3.36104 8.255C3.70141 8.18892 4.04731 8.15543 4.39404 8.155L4.39504 8.156Z" fill="#00385D"/>
<path d="M4.39511 15.1869C5.26882 15.1869 5.97711 14.4787 5.97711 13.6049C5.97711 12.7312 5.26882 12.0229 4.39511 12.0229C3.5214 12.0229 2.81311 12.7312 2.81311 13.6049C2.81311 14.4787 3.5214 15.1869 4.39511 15.1869Z" fill="#00385D"/>
<path d="M4.395 9.21094C3.52575 9.21094 2.67602 9.4687 1.95327 9.95163C1.23052 10.4346 0.667199 11.121 0.334551 11.924C0.00190428 12.7271 -0.0851314 13.6108 0.0844507 14.4634C0.254033 15.3159 0.672616 16.099 1.28727 16.7137C1.90192 17.3283 2.68503 17.7469 3.53758 17.9165C4.39013 18.0861 5.27381 17.999 6.0769 17.6664C6.87998 17.3337 7.56638 16.7704 8.04931 16.0477C8.53224 15.3249 8.79 14.4752 8.79 13.6059C8.78868 12.4407 8.32521 11.3236 7.50127 10.4997C6.67734 9.67573 5.56022 9.21226 4.395 9.21094ZM4.395 16.2419C3.87345 16.2419 3.36362 16.0873 2.92996 15.7975C2.49631 15.5078 2.15832 15.0959 1.95873 14.6141C1.75914 14.1322 1.70692 13.602 1.80867 13.0905C1.91042 12.579 2.16157 12.1091 2.53036 11.7403C2.89915 11.3715 3.36902 11.1204 3.88055 11.0186C4.39208 10.9169 4.92229 10.9691 5.40414 11.1687C5.88599 11.3683 6.29783 11.7062 6.58759 12.1399C6.87734 12.5736 7.032 13.0834 7.032 13.6049C7.03121 14.3041 6.75313 14.9743 6.25877 15.4687C5.7644 15.9631 5.09413 16.2411 4.395 16.2419Z" fill="#00385D"/>
</svg>
