<svg width="18" height="18" viewBox="0 0 18 18" fill="none" xmlns="http://www.w3.org/2000/svg">
<path d="M16.632 4.25309C16.6149 4.19797 16.5851 4.14763 16.545 4.10609C15.8567 3.04989 14.9555 2.14901 13.899 1.46109C13.8579 1.42112 13.8079 1.39162 13.753 1.37509C12.3313 0.48112 10.6859 0.00683594 9.0065 0.00683594C7.32705 0.00683594 5.68174 0.48112 4.26 1.37509C4.20495 1.39186 4.1546 1.42132 4.113 1.46109C3.05431 2.14647 2.15037 3.0453 1.459 4.10009C1.41897 4.14127 1.38917 4.19128 1.372 4.24609C0.477971 5.66818 0.00366211 7.31381 0.00366211 8.99359C0.00366211 10.6734 0.477971 12.319 1.372 13.7411C1.38888 13.7958 1.41833 13.8458 1.458 13.8871C2.14439 14.946 3.04424 15.8499 4.1 16.5411C4.14154 16.5812 4.19188 16.6109 4.247 16.6281C5.66902 17.5218 7.31445 17.9959 8.994 17.9959C10.6735 17.9959 12.319 17.5218 13.741 16.6281C13.7958 16.6109 13.8458 16.5811 13.887 16.5411C14.9459 15.8551 15.8498 14.9556 16.541 13.9001C16.5812 13.859 16.611 13.809 16.628 13.7541C17.5217 12.3323 17.9959 10.687 17.9959 9.00759C17.9959 7.32819 17.5217 5.68292 16.628 4.26109L16.632 4.25309ZM13.672 2.20809C14.5021 2.7802 15.2209 3.49897 15.793 4.32909L13.057 7.06509C12.6119 6.13736 11.8637 5.38918 10.936 4.94409L13.672 2.20809ZM4.329 2.20809L7.065 4.94309C6.13674 5.38825 5.38816 6.13683 4.943 7.06509L2.207 4.32809C2.77986 3.49825 3.49889 2.77955 4.329 2.20709V2.20809ZM4.329 15.7931C3.49888 15.221 2.78011 14.5022 2.208 13.6721L4.944 10.9361C5.38889 11.8639 6.13713 12.6122 7.065 13.0571L4.329 15.7931ZM5.25 9.00009C5.25 8.25841 5.46993 7.53338 5.88199 6.9167C6.29404 6.30001 6.87971 5.81937 7.56493 5.53554C8.25016 5.25171 9.00416 5.17745 9.73159 5.32214C10.459 5.46684 11.1272 5.82399 11.6516 6.34844C12.1761 6.87288 12.5332 7.54107 12.6779 8.2685C12.8226 8.99593 12.7484 9.74993 12.4645 10.4351C12.1807 11.1204 11.7001 11.706 11.0834 12.1181C10.4667 12.5302 9.74168 12.7501 9 12.7501C8.00576 12.749 7.05255 12.3536 6.34952 11.6506C5.64648 10.9475 5.25106 9.99432 5.25 9.00009ZM13.671 15.7931L10.935 13.0571C11.8634 12.6122 12.6121 11.8635 13.057 10.9351L15.794 13.6711C15.221 14.5015 14.5016 15.2205 13.671 15.7931Z" fill="#00385D"/>
</svg>
